<svg width="128" height="128" viewBox="0 0 256 256" fill="none" xmlns="http://www.w3.org/2000/svg" style="font-size: 128px; color: rgb(19, 150, 219);">
<g clip-path="url(#clip0_35_288596)" style="fill: rgb(19, 150, 219);">
<path d="M172.154 94.4278H111.001C109.139 94.4216 107.631 92.9175 107.617 91.0563V23.3816C107.621 22.4896 107.979 21.636 108.615 21.0099C109.25 20.3839 110.109 20.0372 111.001 20.0471H172.154C173.046 20.0372 173.905 20.3839 174.54 21.0099C175.176 21.636 175.534 22.4896 175.538 23.3816V91.0563C175.548 91.9613 175.196 92.8327 174.561 93.4773C173.926 94.1214 173.059 94.4856 172.154 94.4893M114.446 87.6603H168.881V26.8022H114.446V87.6603Z" fill="#333333" style="fill: rgb(19, 150, 219);"></path>
<path d="M91.7728 73.6894H37.4853C35.6165 73.6894 34.1016 72.1744 34.1016 70.3056C34.1016 68.4368 35.6165 66.9219 37.4853 66.9219H91.7728C93.6418 66.9219 95.1565 68.4368 95.1565 70.3056C95.1565 72.1744 93.6418 73.6894 91.7728 73.6894Z" fill="#333333" style="fill: rgb(19, 150, 219);"></path>
<path d="M91.7682 94.4126H37.4807C35.6877 94.3043 34.2891 92.8189 34.2891 91.0227C34.2891 89.2265 35.6877 87.7408 37.4807 87.6328H91.7682C93.5609 87.7408 94.96 89.2265 94.96 91.0227C94.96 92.8189 93.5609 94.3043 91.7682 94.4126Z" fill="#333333" style="fill: rgb(19, 150, 219);"></path>
<path d="M111.297 117.658H37.4697C35.6009 117.658 34.0859 116.143 34.0859 114.274C34.0859 112.405 35.6009 110.891 37.4697 110.891H111.297C113.166 110.891 114.68 112.405 114.68 114.274C114.68 116.143 113.166 117.658 111.297 117.658Z" fill="#333333" style="fill: rgb(19, 150, 219);"></path>
<path d="M111.3 140.913H37.4729C35.6799 140.804 34.2812 139.319 34.2812 137.523C34.2812 135.726 35.6799 134.241 37.4729 134.133H111.3C113.093 134.241 114.492 135.726 114.492 137.523C114.492 139.319 113.093 140.804 111.3 140.913Z" fill="#333333" style="fill: rgb(19, 150, 219);"></path>
<path d="M101.136 164.155H37.4853C35.6193 164.149 34.1083 162.638 34.1016 160.771C34.1214 158.908 35.6229 157.402 37.4853 157.375H101.136C102.929 157.483 104.328 158.968 104.328 160.765C104.328 162.561 102.929 164.047 101.136 164.155Z" fill="#333333" style="fill: rgb(19, 150, 219);"></path>
<path d="M101.136 187.4H37.4853C35.6165 187.4 34.1016 185.886 34.1016 184.017C34.1016 182.147 35.6165 180.633 37.4853 180.633H101.136C103.006 180.633 104.52 182.147 104.52 184.017C104.52 185.886 103.006 187.4 101.136 187.4Z" fill="#333333" style="fill: rgb(19, 150, 219);"></path>
<path d="M111.3 210.655H37.4729C35.6799 210.546 34.2812 209.061 34.2812 207.265C34.2812 205.468 35.6799 203.983 37.4729 203.875H111.3C113.093 203.983 114.492 205.468 114.492 207.265C114.492 209.061 113.093 210.546 111.3 210.655Z" fill="#333333" style="fill: rgb(19, 150, 219);"></path>
<path d="M172.173 117.658H128.196C126.327 117.658 124.812 116.143 124.812 114.274C124.812 112.405 126.327 110.891 128.196 110.891H172.173C174.042 110.891 175.556 112.405 175.556 114.274C175.556 116.143 174.042 117.658 172.173 117.658Z" fill="#333333" style="fill: rgb(19, 150, 219);"></path>
<path d="M165.402 164.153H142.749C141.489 164.229 140.291 163.601 139.638 162.52C138.985 161.44 138.985 160.087 139.638 159.006C140.291 157.926 141.489 157.297 142.749 157.373H165.352C166.612 157.297 167.811 157.926 168.463 159.006C169.116 160.087 169.116 161.44 168.463 162.52C167.811 163.601 166.612 164.229 165.352 164.153" fill="#333333" style="fill: rgb(19, 150, 219);"></path>
<path d="M165.404 187.4H142.751C140.882 187.4 139.367 185.886 139.367 184.017C139.367 182.147 140.882 180.633 142.751 180.633H165.354C167.223 180.633 168.738 182.147 168.738 184.017C168.738 185.886 167.223 187.4 165.354 187.4" fill="#333333" style="fill: rgb(19, 150, 219);"></path>
<path d="M88.3847 44.8294H40.877C39.0724 44.8262 37.3437 44.1037 36.0735 42.8219C34.8033 41.5402 34.0965 39.8049 34.1096 38.0004V26.7418C34.1128 24.9525 34.8284 23.2381 36.0983 21.9775C37.3682 20.7168 39.0877 20.0137 40.877 20.0235H88.3847C90.1751 20.0137 91.896 20.7164 93.1678 21.9768C94.4397 23.237 95.1583 24.9514 95.1645 26.7418V38.0004C95.1743 39.8061 94.4644 41.5413 93.1926 42.8227C91.9204 44.1041 90.1904 44.8262 88.3847 44.8294ZM40.877 38.0004H88.3847V26.7418H40.877V38.0004Z" fill="#333333" style="fill: rgb(19, 150, 219);"></path>
<path d="M153.82 217.176C132.06 217.161 113.34 201.777 109.11 180.431C104.878 159.086 116.315 137.725 136.424 129.41C156.535 121.096 179.716 128.146 191.795 146.248C203.871 164.349 201.481 188.461 186.083 203.838C177.529 212.394 165.919 217.193 153.82 217.176ZM153.82 132.669C135.269 132.679 119.306 145.789 115.691 163.985C112.077 182.182 121.818 200.398 138.957 207.497C156.097 214.597 175.864 208.602 186.175 193.18C196.486 177.757 194.47 157.2 181.358 144.075C174.074 136.743 164.156 132.634 153.82 132.669Z" fill="#333333" style="fill: rgb(19, 150, 219);"></path>
<path d="M153.827 203.749C138.467 203.725 125.262 192.857 122.285 177.788C119.309 162.718 127.391 147.645 141.587 141.783C155.786 135.923 172.147 140.905 180.668 153.684C189.189 166.465 187.497 183.483 176.627 194.336C170.574 200.371 162.373 203.756 153.827 203.749ZM153.827 146.078C143.524 146.078 134.237 152.288 130.301 161.809C126.363 171.331 128.555 182.286 135.85 189.562C144.005 197.695 156.606 199.339 166.575 193.572C176.546 187.803 181.401 176.06 178.415 164.936C175.429 153.811 165.345 146.078 153.827 146.078Z" fill="#333333" style="fill: rgb(19, 150, 219);"></path>
<path d="M223.686 255.934C219.8 255.959 216.069 254.416 213.338 251.652L172.339 210.666C171.595 209.925 171.248 208.874 171.404 207.836C171.543 206.808 172.147 205.902 173.04 205.375C176.092 203.682 178.893 201.569 181.358 199.1C183.813 196.62 185.923 193.824 187.634 190.782C188.171 189.882 189.092 189.279 190.13 189.145C191.17 189.011 192.212 189.361 192.961 190.093L233.997 231.079C238.129 235.256 239.352 241.506 237.101 246.933C234.85 252.361 229.562 255.908 223.686 255.934ZM180.116 208.882L218.161 246.878C221.219 249.936 226.177 249.936 229.235 246.878C232.293 243.82 232.293 238.862 229.235 235.804L191.227 197.808C189.743 199.968 188.063 201.986 186.206 203.837C184.341 205.68 182.324 207.363 180.177 208.869" fill="#333333" style="fill: rgb(19, 150, 219);"></path>
<path d="M188.534 239.938H21.0947C19.2342 239.918 17.7309 238.415 17.7109 236.554V3.35949C17.7442 1.50865 19.2436 0.0200483 21.0947 0.000361072H188.534C189.436 -0.0128047 190.306 0.334551 190.95 0.965156C191.594 1.59589 191.961 2.45769 191.967 3.35949V147.433C191.981 148.923 191.008 150.242 189.58 150.669C188.184 151.117 186.658 150.621 185.79 149.439C184.506 147.525 183.038 145.741 181.41 144.111C174.117 136.807 164.218 132.703 153.897 132.703C143.576 132.703 133.677 136.807 126.384 144.111C112.542 157.862 111.043 179.746 122.882 195.256C134.722 210.765 156.228 215.089 173.141 205.362C174.485 204.627 176.154 204.873 177.226 205.965L191.02 219.71C191.667 220.364 192.026 221.25 192.016 222.17V236.616C192.016 238.485 190.502 240 188.633 240M24.5892 233.232H185.151V223.573L174.077 212.499C153.372 222.712 128.301 215.839 115.699 196.496C103.096 177.152 106.938 151.443 124.644 136.628C142.351 121.814 168.335 122.57 185.151 138.389V6.74323H24.4907L24.5892 233.232Z" fill="#333333" style="fill: rgb(19, 150, 219);"></path>
<path d="M199.272 222.367C198.373 222.381 197.508 222.02 196.885 221.371L180.348 204.796C179.04 203.488 179.04 201.367 180.348 200.059C181.656 198.751 183.777 198.751 185.085 200.059L201.672 216.559C202.315 217.187 202.678 218.048 202.678 218.947C202.678 219.845 202.315 220.706 201.672 221.334C201.05 221.993 200.178 222.356 199.272 222.33" fill="#333333" style="fill: rgb(19, 150, 219);"></path>
</g>
<defs style="fill: rgb(19, 150, 219);">
<clipPath id="clip0_35_288596" style="fill: rgb(19, 150, 219);">
<rect width="256" height="256" fill="white" style="fill: rgb(19, 150, 219);"></rect>
</clipPath>
</defs>
</svg>