<svg data-name="图层 1" xmlns:xlink="http://www.w3.org/1999/xlink" viewBox="0 0 256 256" height="128" width="128" id="_图层_1" xmlns="http://www.w3.org/2000/svg" style="font-size: 128px; color: rgb(112, 112, 112);"><defs style="fill: rgb(112, 112, 112);"><style style="fill: rgb(112, 112, 112);"> .cls-1 { fill-rule: evenodd; } .cls-1, .cls-2, .cls-3 { stroke-width: 0px; } .cls-1, .cls-3 { fill: #333; } .cls-2 { fill: none; } .cls-4 { clip-path: url(#clippath); } </style><clipPath id="clippath" style="fill: rgb(112, 112, 112);"><rect height="256" width="256" y="0" class="cls-2" style="fill: rgb(112, 112, 112);"></rect></clipPath></defs><g transform="matrix(1.0002735,0,0,1.0002735,-1.2760626e-14,-1.2760626e-14)" style="fill: rgb(112, 112, 112);"><g class="cls-4" style="fill: rgb(112, 112, 112);"><g data-name="åçº¿é¢_10758972244.æ£æµ" id="_å_ç_é__10758972244.æ_æ_" style="fill: rgb(112, 112, 112);"><g id="Group" style="fill: rgb(112, 112, 112);"><g data-name="Group 2" id="Group_2" style="fill: rgb(112, 112, 112);"><path d="m83.76,204.73c-31.47,0-57.07-25.6-57.07-57.07s25.6-57.07,57.07-57.07,57.07,25.6,57.07,57.07-25.6,57.07-57.07,57.07Zm0-108.53c-28.38,0-51.46,23.09-51.46,51.46s23.09,51.46,51.46,51.46,51.46-23.09,51.46-51.46-23.08-51.46-51.46-51.46Z" id="Vector" class="cls-3" style="fill: rgb(112, 112, 112);"></path></g><g data-name="Group 3" id="Group_3" style="fill: rgb(112, 112, 112);"><path data-name="Vector 2" d="m83.77,225.71c-20.85,0-40.45-8.12-55.19-22.86-14.74-14.74-22.86-34.34-22.86-55.19s8.12-40.45,22.86-55.19c14.74-14.74,34.34-22.86,55.19-22.86s40.45,8.12,55.19,22.86c14.74,14.74,22.86,34.34,22.86,55.19,0,15.44-4.5,30.38-13.03,43.18-.86,1.29-2.6,1.64-3.88.78-1.29-.86-1.64-2.6-.78-3.89,7.91-11.88,12.09-25.74,12.09-40.08,0-19.35-7.54-37.54-21.22-51.23-13.68-13.68-31.88-21.22-51.23-21.22s-37.54,7.54-51.23,21.22c-13.68,13.68-21.22,31.87-21.22,51.23s7.54,37.54,21.22,51.22c13.68,13.68,31.88,21.22,51.23,21.22,13.34,0,26.37-3.65,37.7-10.57,1.32-.81,3.05-.39,3.85.93.81,1.32.39,3.04-.93,3.85-12.21,7.45-26.25,11.39-40.62,11.39Z" id="Vector_2" class="cls-3" style="fill: rgb(112, 112, 112);"></path></g><g data-name="Group 4" id="Group_4" style="fill: rgb(112, 112, 112);"><path data-name="Vector 3" d="m169.86,255.93c-4.26,0-8.52-1.62-11.76-4.86l-37.16-37.16c-.61-.61-.9-1.46-.8-2.31.1-.85.59-1.61,1.32-2.06,8.99-5.49,16.82-13.02,22.66-21.8.46-.7,1.22-1.15,2.06-1.24.83-.08,1.66.21,2.26.81l36.71,36.71c3.14,3.14,4.87,7.31,4.87,11.76s-1.73,8.62-4.87,11.76l-3.53,3.53c-3.24,3.24-7.5,4.86-11.76,4.86Zm-42.5-43.52l34.7,34.7c4.3,4.3,11.29,4.3,15.59,0l3.53-3.53c2.08-2.08,3.23-4.85,3.23-7.8s-1.15-5.71-3.23-7.79l-34.35-34.35c-5.34,7.3-11.99,13.71-19.48,18.77Z" id="Vector_3" class="cls-3" style="fill: rgb(112, 112, 112);"></path></g><g data-name="Group 5" id="Group_5" style="fill: rgb(112, 112, 112);"><path data-name="Vector 4" d="m168.44,30.7c-22.78,0-42.15,14.57-49.3,34.91,28.05,12.1,48.67,38.17,53.08,69.45,27.09-1.94,48.46-24.53,48.46-52.11s-23.39-52.24-52.24-52.24Zm-16.34,41.72c-4.56,0-8.26-3.7-8.26-8.26s3.7-8.26,8.26-8.26,8.26,3.7,8.26,8.26-3.7,8.26-8.26,8.26Zm30.55-27.93c5.41,0,9.79,4.38,9.79,9.79s-4.39,9.79-9.79,9.79-9.79-4.39-9.79-9.79,4.38-9.79,9.79-9.79Zm2.53,63.43c-8.6,0-15.57-6.97-15.57-15.57s6.97-15.57,15.57-15.57,15.57,6.97,15.57,15.57-6.97,15.57-15.57,15.57Z" id="Vector_4" class="cls-3" style="fill: rgb(112, 112, 112);"></path></g><g data-name="Group 6" id="Group_6" style="fill: rgb(112, 112, 112);"><path data-name="Vector 5" d="m168.43,12.06c3.33,0,6.03-2.7,6.03-6.03S171.77,0,168.43,0s-6.03,2.7-6.03,6.03,2.7,6.03,6.03,6.03Z" id="Vector_5" class="cls-3" style="fill: rgb(112, 112, 112);"></path></g><g data-name="Group 7" id="Group_7" style="fill: rgb(112, 112, 112);"><path data-name="Vector 6" d="m168.44.8l-4.42,30.38h8.85l-4.42-30.38Z" id="Vector_6" class="cls-1" style="fill: rgb(112, 112, 112);"></path></g><g data-name="Group 8" id="Group_8" style="fill: rgb(112, 112, 112);"><path data-name="Vector 7" d="m142.13,16.7c3.33,0,6.03-2.7,6.03-6.03s-2.7-6.03-6.03-6.03-6.03,2.7-6.03,6.03,2.7,6.03,6.03,6.03Z" id="Vector_7" class="cls-3" style="fill: rgb(112, 112, 112);"></path></g><g data-name="Group 9" id="Group_9" style="fill: rgb(112, 112, 112);"><path data-name="Vector 8" d="m140.34,5.75l6.23,30.06,8.31-3.03-14.55-27.03Z" id="Vector_8" class="cls-1" style="fill: rgb(112, 112, 112);"></path></g><g data-name="Group 10" id="Group_10" style="fill: rgb(112, 112, 112);"><path data-name="Vector 9" d="m119,30.06c3.33,0,6.03-2.7,6.03-6.03s-2.7-6.03-6.03-6.03-6.03,2.7-6.03,6.03,2.7,6.03,6.03,6.03Z" id="Vector_9" class="cls-3" style="fill: rgb(112, 112, 112);"></path></g><g data-name="Group 11" id="Group_11" style="fill: rgb(112, 112, 112);"><path data-name="Vector 10" d="m115.63,20.02l16.14,26.11,6.78-5.69-22.91-20.42Z" id="Vector_10" class="cls-1" style="fill: rgb(112, 112, 112);"></path></g><g data-name="Group 12" id="Group_12" style="fill: rgb(112, 112, 112);"><path data-name="Vector 11" d="m101.82,50.52c3.33,0,6.03-2.7,6.03-6.03s-2.7-6.03-6.03-6.03-6.03,2.7-6.03,6.03,2.7,6.03,6.03,6.03Z" id="Vector_11" class="cls-3" style="fill: rgb(112, 112, 112);"></path></g><g data-name="Group 13" id="Group_13" style="fill: rgb(112, 112, 112);"><path data-name="Vector 12" d="m97.3,41.87l24.09,19.02,4.42-7.66-28.52-11.36Z" id="Vector_12" class="cls-1" style="fill: rgb(112, 112, 112);"></path></g><g data-name="Group 14" id="Group_14" style="fill: rgb(112, 112, 112);"><path data-name="Vector 13" d="m101.82,127.44c3.33,0,6.03-2.7,6.03-6.03s-2.7-6.03-6.03-6.03-6.03,2.7-6.03,6.03,2.7,6.03,6.03,6.03Z" id="Vector_13" class="cls-3" style="fill: rgb(112, 112, 112);"></path></g><g data-name="Group 15" id="Group_15" style="fill: rgb(112, 112, 112);"><path data-name="Vector 14" d="m97.3,124.02l28.52-11.36-4.42-7.66-24.09,19.02Z" id="Vector_14" class="cls-1" style="fill: rgb(112, 112, 112);"></path></g><g data-name="Group 16" id="Group_16" style="fill: rgb(112, 112, 112);"><path data-name="Vector 15" d="m119,147.9c3.33,0,6.03-2.7,6.03-6.03s-2.7-6.03-6.03-6.03-6.03,2.7-6.03,6.03,2.7,6.03,6.03,6.03Z" id="Vector_15" class="cls-3" style="fill: rgb(112, 112, 112);"></path></g><g data-name="Group 17" id="Group_17" style="fill: rgb(112, 112, 112);"><path data-name="Vector 16" d="m115.63,145.87l22.91-20.42-6.78-5.69-16.14,26.11Z" id="Vector_16" class="cls-1" style="fill: rgb(112, 112, 112);"></path></g><g data-name="Group 18" id="Group_18" style="fill: rgb(112, 112, 112);"><path data-name="Vector 17" d="m194.74,161.26c3.33,0,6.03-2.7,6.03-6.03s-2.7-6.03-6.03-6.03-6.03,2.7-6.03,6.03,2.7,6.03,6.03,6.03Z" id="Vector_17" class="cls-3" style="fill: rgb(112, 112, 112);"></path></g><g data-name="Group 19" id="Group_19" style="fill: rgb(112, 112, 112);"><path data-name="Vector 18" d="m196.53,160.14l-6.23-30.06-8.31,3.03,14.54,27.03Z" id="Vector_18" class="cls-1" style="fill: rgb(112, 112, 112);"></path></g><g data-name="Group 20" id="Group_20" style="fill: rgb(112, 112, 112);"><path data-name="Vector 19" d="m217.88,147.9c3.33,0,6.03-2.7,6.03-6.03s-2.7-6.03-6.03-6.03-6.03,2.7-6.03,6.03,2.7,6.03,6.03,6.03Z" id="Vector_19" class="cls-3" style="fill: rgb(112, 112, 112);"></path></g><g data-name="Group 21" id="Group_21" style="fill: rgb(112, 112, 112);"><path data-name="Vector 20" d="m221.24,145.87l-16.14-26.11-6.78,5.69,22.91,20.42Z" id="Vector_20" class="cls-1" style="fill: rgb(112, 112, 112);"></path></g><g data-name="Group 22" id="Group_22" style="fill: rgb(112, 112, 112);"><path data-name="Vector 21" d="m235.05,127.44c3.33,0,6.03-2.7,6.03-6.03s-2.7-6.03-6.03-6.03-6.03,2.7-6.03,6.03,2.7,6.03,6.03,6.03Z" id="Vector_21" class="cls-3" style="fill: rgb(112, 112, 112);"></path></g><g data-name="Group 23" id="Group_23" style="fill: rgb(112, 112, 112);"><path data-name="Vector 22" d="m239.58,124.02l-24.09-19.02-4.42,7.66,28.52,11.36Z" id="Vector_22" class="cls-1" style="fill: rgb(112, 112, 112);"></path></g><g data-name="Group 24" id="Group_24" style="fill: rgb(112, 112, 112);"><path data-name="Vector 23" d="m244.18,102.34c3.33,0,6.03-2.7,6.03-6.03s-2.7-6.03-6.03-6.03-6.03,2.7-6.03,6.03,2.7,6.03,6.03,6.03Z" id="Vector_23" class="cls-3" style="fill: rgb(112, 112, 112);"></path></g><g data-name="Group 25" id="Group_25" style="fill: rgb(112, 112, 112);"><path data-name="Vector 24" d="m249.34,97.21l-29.15-9.63-1.54,8.71,30.69.92Z" id="Vector_24" class="cls-1" style="fill: rgb(112, 112, 112);"></path></g><g data-name="Group 26" id="Group_26" style="fill: rgb(112, 112, 112);"><path data-name="Vector 25" d="m244.18,75.62c3.33,0,6.03-2.7,6.03-6.03s-2.7-6.03-6.03-6.03-6.03,2.7-6.03,6.03,2.7,6.03,6.03,6.03Z" id="Vector_25" class="cls-3" style="fill: rgb(112, 112, 112);"></path></g><g data-name="Group 27" id="Group_27" style="fill: rgb(112, 112, 112);"><path data-name="Vector 26" d="m249.34,68.68l-30.69.92,1.54,8.71,29.15-9.63Z" id="Vector_26" class="cls-1" style="fill: rgb(112, 112, 112);"></path></g><g data-name="Group 28" id="Group_28" style="fill: rgb(112, 112, 112);"><path data-name="Vector 27" d="m235.05,50.52c3.33,0,6.03-2.7,6.03-6.03s-2.7-6.03-6.03-6.03-6.03,2.7-6.03,6.03,2.7,6.03,6.03,6.03Z" id="Vector_27" class="cls-3" style="fill: rgb(112, 112, 112);"></path></g><g data-name="Group 29" id="Group_29" style="fill: rgb(112, 112, 112);"><path data-name="Vector 28" d="m239.58,41.87l-28.52,11.36,4.42,7.66,24.09-19.02Z" id="Vector_28" class="cls-1" style="fill: rgb(112, 112, 112);"></path></g><g data-name="Group 30" id="Group_30" style="fill: rgb(112, 112, 112);"><path data-name="Vector 29" d="m217.88,30.06c3.33,0,6.03-2.7,6.03-6.03s-2.7-6.03-6.03-6.03-6.03,2.7-6.03,6.03,2.7,6.03,6.03,6.03Z" id="Vector_29" class="cls-3" style="fill: rgb(112, 112, 112);"></path></g><g data-name="Group 31" id="Group_31" style="fill: rgb(112, 112, 112);"><path data-name="Vector 30" d="m221.24,20.02l-22.91,20.42,6.78,5.69,16.14-26.11Z" id="Vector_30" class="cls-1" style="fill: rgb(112, 112, 112);"></path></g><g data-name="Group 32" id="Group_32" style="fill: rgb(112, 112, 112);"><path data-name="Vector 31" d="m194.74,16.7c3.33,0,6.03-2.7,6.03-6.03s-2.7-6.03-6.03-6.03-6.03,2.7-6.03,6.03,2.7,6.03,6.03,6.03Z" id="Vector_31" class="cls-3" style="fill: rgb(112, 112, 112);"></path></g><g data-name="Group 33" id="Group_33" style="fill: rgb(112, 112, 112);"><path data-name="Vector 32" d="m196.53,5.75l-14.54,27.03,8.31,3.03,6.23-30.06Z" id="Vector_32" class="cls-1" style="fill: rgb(112, 112, 112);"></path></g><g data-name="Group 34" id="Group_34" style="fill: rgb(112, 112, 112);"><path data-name="Vector 33" d="m160.05,202.88l-22.41,23.77-14.72-14.72c9.4-5.74,17.44-13.48,23.53-22.64l13.59,13.59Z" id="Vector_33" class="cls-3" style="fill: rgb(112, 112, 112);"></path></g></g></g></g></g></svg>