<svg width="128" height="128" viewBox="0 0 256 256" fill="none" xmlns="http://www.w3.org/2000/svg" style="font-size: 128px; color: rgb(19, 150, 219);">
<g id="å•é¢æ€§_10740923424.åŠ¨æ€" clip-path="url(#clip0_9_96907)" style="fill: rgb(19, 150, 219);">
<g id="Group" style="fill: rgb(19, 150, 219);">
<g id="Group_2" style="fill: rgb(19, 150, 219);">
<g id="Group_3" style="fill: rgb(19, 150, 219);">
<path id="Vector" fill-rule="evenodd" clip-rule="evenodd" d="M128 256C57.3076 256 0 198.692 0 128C0 57.3076 57.3076 0 128 0C198.692 0 256 57.3076 256 128C256 198.692 198.692 256 128 256ZM117.711 151.671C122.341 139.097 113.217 124.074 97.4656 118.286L60.7891 104.783C57.1799 103.467 54.0249 102.831 51.4375 102.831C42.6543 102.831 39.9537 109.98 45.6959 121.577L50.0535 130.337C57.5437 145.384 73.9296 161.475 86.4804 166.104C89.1532 167.097 91.982 167.604 94.8332 167.603C104.728 167.603 114.101 161.497 117.711 151.671ZM104.297 117.765C106.521 118.581 108.791 118.967 111.106 118.967C121.863 118.967 132.917 110.479 137.683 97.4977L151.209 60.7765C155.431 49.3845 152.616 42.6667 145.059 42.6667C142.176 42.6667 138.568 43.6423 134.415 45.708L125.654 50.0653C110.606 57.5544 94.5152 73.9405 89.8852 86.4907C85.2549 99.0863 91.7463 113.135 104.297 117.765ZM210.309 134.468L205.952 125.708C198.463 110.638 182.076 94.5704 169.524 89.9175C166.756 88.8735 163.941 88.4201 161.151 88.4201C151.232 88.4201 141.859 94.5244 138.251 104.352C133.62 116.925 142.744 131.949 158.495 137.736L195.217 151.261C198.827 152.579 201.957 153.215 204.568 153.215C213.328 153.215 216.052 146.065 210.309 134.468ZM151.664 138.304C149.439 137.464 147.169 137.077 144.855 137.077C134.096 137.077 123.044 145.567 118.277 158.548L104.751 195.223C100.552 206.616 103.344 213.333 110.924 213.333C113.806 213.333 117.415 212.357 121.568 210.292L130.33 205.935C145.376 198.445 161.468 182.06 166.097 169.509C170.728 156.981 164.237 142.933 151.664 138.304Z" fill="#333333" style="fill: rgb(19, 150, 219);"></path>
</g>
</g>
</g>
</g>
<defs style="fill: rgb(19, 150, 219);">
<clipPath id="clip0_9_96907" style="fill: rgb(19, 150, 219);">
<rect width="256" height="256" fill="white" style="fill: rgb(19, 150, 219);"></rect>
</clipPath>
</defs>
</svg>