<svg width="128" height="128" viewBox="0 0 256 256" xmlns="http://www.w3.org/2000/svg" xmlns:xlink="http://www.w3.org/1999/xlink" version="1.2" baseProfile="tiny" style="font-size: 128px; color: rgb(19, 150, 219);">
<title style="fill: rgb(19, 150, 219);">Qt SVG Document</title>
<desc style="fill: rgb(19, 150, 219);">Generated with Qt</desc>
<defs style="fill: rgb(19, 150, 219);">
</defs>
<g fill="none" stroke="black" stroke-width="1" fill-rule="evenodd" stroke-linecap="square" stroke-linejoin="bevel" style="fill: rgb(19, 150, 219);">

<g fill="none" stroke="#000000" stroke-opacity="1" stroke-width="1" stroke-linecap="square" stroke-linejoin="bevel" transform="matrix(0.0666667,0,0,0.0666667,0.933333,0.933333)" font-family="微软雅黑" font-size="12" font-weight="400" font-style="normal" style="fill: rgb(19, 150, 219);">
</g>

<g fill="none" stroke="#000000" stroke-opacity="1" stroke-width="1" stroke-linecap="square" stroke-linejoin="bevel" transform="matrix(0.0666667,0,0,0.0666667,0,0)" font-family="微软雅黑" font-size="12" font-weight="400" font-style="normal" style="fill: rgb(19, 150, 219);">
</g>

<g fill="none" stroke="#000000" stroke-opacity="1" stroke-width="1" stroke-linecap="square" stroke-linejoin="bevel" transform="matrix(0.0666667,0,0,0.0666667,0,0)" font-family="微软雅黑" font-size="12" font-weight="400" font-style="normal" style="fill: rgb(19, 150, 219);">
</g>

<g fill="none" stroke="#000000" stroke-opacity="1" stroke-width="1" stroke-linecap="square" stroke-linejoin="bevel" transform="matrix(0.0666667,0,0,0.0666667,0,0)" font-family="微软雅黑" font-size="12" font-weight="400" font-style="normal" style="fill: rgb(19, 150, 219);">
</g>

<g fill="none" stroke="#000000" stroke-opacity="1" stroke-width="1" stroke-linecap="square" stroke-linejoin="bevel" transform="matrix(0.0666667,0,0,0.0666667,0,0)" font-family="微软雅黑" font-size="12" font-weight="400" font-style="normal" style="fill: rgb(19, 150, 219);">
</g>

<g fill="none" stroke="#000000" stroke-opacity="1" stroke-width="1" stroke-linecap="square" stroke-linejoin="bevel" transform="matrix(0.0666667,0,0,0.0666667,0,0)" font-family="微软雅黑" font-size="12" font-weight="400" font-style="normal" style="fill: rgb(19, 150, 219);">
</g>

<g fill="#333333" fill-opacity="1" stroke="none" transform="matrix(1.27967,0,0,1.27967,-35.8946,-32.3756)" font-family="Arial" font-size="16" font-weight="400" font-style="normal" style="fill: rgb(19, 150, 219);">
<path vector-effect="none" fill-rule="nonzero" d="M127.5,25.3 C72.5,25.3 28.1,70.8 28.1,125.8 C28.1,180.8 72.5,225.3 127.5,225.3 C183.5,225.3 228,180.9 228,125.8 C227.9,70.8 183.5,25.3 127.5,25.3 M182.5,160.8 C162.4,180.9 162.4,180.9 162.4,180.9 C129.6,148.1 129.6,148.1 129.6,148.1 C96.8,180.9 96.8,180.9 96.8,180.9 C75.6,160.8 75.6,160.8 75.6,160.8 C108.4,128 108.4,128 108.4,128 C75.6,95.2 75.6,95.2 75.6,95.2 C96.8,74 96.8,74 96.8,74 C129.6,106.8 129.6,106.8 129.6,106.8 C162.4,74 162.4,74 162.4,74 C182.5,95.2 182.5,95.2 182.5,95.2 C149.7,128 149.7,128 149.7,128 L182.5,160.8" style="fill: rgb(19, 150, 219);"></path>
</g>

<g fill="none" stroke="#000000" stroke-opacity="1" stroke-width="1" stroke-linecap="square" stroke-linejoin="bevel" transform="matrix(0.0666667,0,0,0.0666667,0,0)" font-family="微软雅黑" font-size="12" font-weight="400" font-style="normal" style="fill: rgb(19, 150, 219);">
</g>

<g fill="none" stroke="#000000" stroke-opacity="1" stroke-width="1" stroke-linecap="square" stroke-linejoin="bevel" transform="matrix(0.0666667,0,0,0.0666667,0,0)" font-family="微软雅黑" font-size="12" font-weight="400" font-style="normal" style="fill: rgb(19, 150, 219);">
</g>

<g fill="none" stroke="#000000" stroke-opacity="1" stroke-width="1" stroke-linecap="square" stroke-linejoin="bevel" transform="matrix(0.0666667,0,0,0.0666667,0,0)" font-family="微软雅黑" font-size="12" font-weight="400" font-style="normal" style="fill: rgb(19, 150, 219);">
</g>

<g fill="none" stroke="#000000" stroke-opacity="1" stroke-width="1" stroke-linecap="square" stroke-linejoin="bevel" transform="matrix(0.0666667,0,0,0.0666667,0,0)" font-family="微软雅黑" font-size="12" font-weight="400" font-style="normal" style="fill: rgb(19, 150, 219);">
</g>

<g fill="none" stroke="#000000" stroke-opacity="1" stroke-width="1" stroke-linecap="square" stroke-linejoin="bevel" transform="matrix(0.0666667,0,0,0.0666667,0,0)" font-family="微软雅黑" font-size="12" font-weight="400" font-style="normal" style="fill: rgb(19, 150, 219);">
</g>

<g fill="none" stroke="#000000" stroke-opacity="1" stroke-width="1" stroke-linecap="square" stroke-linejoin="bevel" transform="matrix(0.0666667,0,0,0.0666667,0,0)" font-family="微软雅黑" font-size="12" font-weight="400" font-style="normal" style="fill: rgb(19, 150, 219);">
</g>

<g fill="none" stroke="#000000" stroke-opacity="1" stroke-width="1" stroke-linecap="square" stroke-linejoin="bevel" transform="matrix(0.0666667,0,0,0.0666667,0.933333,0.933333)" font-family="微软雅黑" font-size="12" font-weight="400" font-style="normal" style="fill: rgb(19, 150, 219);">
</g>
</g>
</svg>