<svg width="128" height="128" viewBox="0 0 256 256" fill="none" xmlns="http://www.w3.org/2000/svg" style="font-size: 128px; color: rgb(19, 150, 219);">
<g id="å•é¢æ€§_10740924897.ä¿¡æ¯æŠ«éœ²" clip-path="url(#clip0_10_56381)" style="fill: rgb(19, 150, 219);">
<g id="Group" style="fill: rgb(19, 150, 219);">
<g id="Group_2" style="fill: rgb(19, 150, 219);">
<g id="Group_3" style="fill: rgb(19, 150, 219);">
<path id="Vector" d="M19.6923 19.6924H236.308C247.184 19.6924 256 28.5047 256 39.3847V216.615C256 227.495 247.184 236.308 236.308 236.308H19.6923C8.81649 236.308 0 227.495 0 216.615V39.3847C0 28.5047 8.81649 19.6924 19.6923 19.6924ZM88.6154 59.077C83.1775 59.077 78.7692 63.4832 78.7692 68.9232C78.7692 74.3632 83.1775 78.7693 88.6154 78.7693H206.769C212.207 78.7693 216.615 74.3632 216.615 68.9232C216.615 63.4832 212.207 59.077 206.769 59.077H88.6154ZM49.2308 59.077C43.7929 59.077 39.3846 63.4832 39.3846 68.9232C39.3846 74.3632 43.7929 78.7693 49.2308 78.7693C54.6687 78.7693 59.0769 74.3632 59.0769 68.9232C59.0769 63.4832 54.6687 59.077 49.2308 59.077ZM49.2308 108.308C43.7929 108.308 39.3846 112.714 39.3846 118.154C39.3846 123.594 43.7929 128 49.2308 128C54.6687 128 59.0769 123.594 59.0769 118.154C59.0769 112.714 54.6687 108.308 49.2308 108.308ZM49.2308 157.539C43.7929 157.539 39.3846 161.945 39.3846 167.385C39.3846 172.825 43.7929 177.231 49.2308 177.231C54.6687 177.231 59.0769 172.825 59.0769 167.385C59.0769 161.945 54.6687 157.539 49.2308 157.539ZM88.6154 108.308C83.1775 108.308 78.7692 112.714 78.7692 118.154C78.7692 123.594 83.1775 128 88.6154 128H206.769C212.207 128 216.615 123.594 216.615 118.154C216.615 112.714 212.207 108.308 206.769 108.308H88.6154ZM88.6154 157.539C83.1775 157.539 78.7692 161.945 78.7692 167.385C78.7692 172.825 83.1775 177.231 88.6154 177.231H206.769C212.207 177.231 216.615 172.825 216.615 167.385C216.615 161.945 212.207 157.539 206.769 157.539H88.6154Z" fill="#333333" style="fill: rgb(19, 150, 219);"></path>
</g>
</g>
</g>
</g>
<defs style="fill: rgb(19, 150, 219);">
<clipPath id="clip0_10_56381" style="fill: rgb(19, 150, 219);">
<rect width="256" height="256" fill="white" style="fill: rgb(19, 150, 219);"></rect>
</clipPath>
</defs>
</svg>