<svg id="图层_1" height="128" width="128" xmlns="http://www.w3.org/2000/svg" viewBox="0 0 256 256" data-name="图层 1" xmlns:xlink="http://www.w3.org/1999/xlink" style="font-size: 128px;">
    <defs>
        <clipPath id="clip-path">
            <rect height="208" style="fill:none" x="28.85" width="198.3" y="24"></rect>
        </clipPath>
        <clipPath id="clip-path-2">
            <path style="fill:none" d="M117.89,67.84a53.14,53.14,0,1,0,37.56-15.55,53.12,53.12,0,0,0-37.56,15.55"></path>
        </clipPath>
    </defs>
    <g transform="matrix(1.0900056,0,0,1.0900056,-11.521543,3.097603)">
        <g style="clip-path:url(#clip-path)">
            <path style="fill:#78b5e2" d="M110,101.48c1.93-.18,4.22,1.19,6.16.61s3.1-3,4.82-3.88,4.4-.55,5.92-1.79,1.71-3.91,3-5.43,3.84-2.18,4.79-3.92.07-4.26.66-6.16,2.72-3.47,2.93-5.45-1.56-3.94-1.75-5.94,1.19-4.22.61-6.16-3-3.1-3.88-4.82-.55-4.41-1.78-5.93-3.92-1.71-5.44-3-2.18-3.85-3.92-4.79-4.26-.08-6.15-.67-3.48-2.72-5.46-2.92-3.94,1.55-5.94,1.74-4.22-1.18-6.16-.61-3.1,3-4.82,3.88-4.41.55-5.93,1.79-1.7,3.92-3,5.43-3.85,2.19-4.79,3.93-.08,4.25-.66,6.15S76.46,67.05,76.26,69,77.82,73,78,75s-1.18,4.23-.61,6.16,3,3.1,3.88,4.83.56,4.4,1.79,5.92,3.92,1.71,5.44,3,2.18,3.84,3.92,4.78,4.26.08,6.15.67S102,103,104,103.23s3.94-1.56,5.94-1.75"></path>
            <path style="fill:#0d63ff" d="M110.24,104.41c2.13-.21,4.64,1.3,6.77.66s3.42-3.26,5.31-4.26,4.85-.61,6.52-2,1.88-4.31,3.26-6,4.23-2.4,5.26-4.31.09-4.69.73-6.77,3-3.82,3.23-6-1.72-4.34-1.92-6.53,1.3-4.65.67-6.78-3.27-3.41-4.27-5.3-.61-4.85-2-6.52-4.3-1.88-6-3.26-2.41-4.23-4.32-5.27-4.68-.08-6.77-.73-3.82-3-6-3.22-4.33,1.71-6.53,1.92-4.65-1.3-6.78-.67-3.41,3.27-5.3,4.27-4.85.6-6.52,2-1.88,4.31-3.26,6S78.15,54,77.12,56s-.09,4.68-.74,6.76-3,3.82-3.22,6,1.71,4.34,1.92,6.54-1.3,4.64-.67,6.77,3.27,3.41,4.27,5.31.61,4.84,2,6.52,4.31,1.87,6,3.25,2.4,4.24,4.32,5.27,4.68.09,6.77.73,3.81,3,6,3.22,4.34-1.71,6.54-1.91m-5.81-5.12c-1.69-.18-2.83-3.09-4.44-3.59s-4.2,1.26-5.69.45-1.42-3.93-2.73-5-4.36-.43-5.43-1.75.19-4.16-.61-5.68-3.85-2-4.34-3.71S83,76.18,82.8,74.53,80,71.11,80.2,69.44s3.09-2.83,3.59-4.44-1.26-4.2-.46-5.69,3.93-1.43,5-2.73.43-4.36,1.75-5.44,4.16.2,5.68-.6,2-3.85,3.7-4.34S103.3,48,105,47.8,108.38,45,110,45.21s2.84,3.09,4.44,3.58,4.21-1.25,5.7-.45,1.42,3.93,2.73,5,4.36.44,5.43,1.76-.19,4.16.61,5.67,3.85,2.06,4.34,3.71-1.77,3.82-1.61,5.48,2.78,3.42,2.6,5.08-3.09,2.83-3.59,4.44,1.26,4.21.45,5.69-3.93,1.43-5,2.74-.43,4.36-1.75,5.43-4.16-.19-5.68.6-2,3.85-3.7,4.35-3.83-1.77-5.48-1.61-3.42,2.77-5.09,2.6"></path>
            <path style="fill:#0d63ff" d="M67.47,99.57l5.47,6.59a3.2,3.2,0,0,0,4.31.64,3.07,3.07,0,0,0,.53-4.43l-.12-.14a2,2,0,0,1,.26-2.77l6.06-5L81.15,91l-6.06,5a2,2,0,0,1-2.77-.26h0A3.2,3.2,0,0,0,68,95.14a3.07,3.07,0,0,0-.53,4.43"></path>
            <path style="fill:#0d63ff" d="M147,44.92l-5.48-6.59a3.19,3.19,0,0,0-4.3-.64,3.07,3.07,0,0,0-.53,4.43l.11.14a2,2,0,0,1-.25,2.78l-6.06,5,2.83,3.41,6.06-5a2,2,0,0,1,2.77.26h0a3.19,3.19,0,0,0,4.3.64,3.08,3.08,0,0,0,.54-4.43"></path>
            <path style="fill:#0d63ff" d="M134.56,112l6.59-5.47a3.18,3.18,0,0,0,.64-4.3,3.07,3.07,0,0,0-4.42-.54l-.15.12a2,2,0,0,1-2.77-.26l-5-6L126,98.34l5,6a2,2,0,0,1-.26,2.78h0a3.17,3.17,0,0,0-.63,4.3,3.06,3.06,0,0,0,4.42.53"></path>
            <path style="fill:#0d63ff" d="M79.92,32.48,73.32,38a3.18,3.18,0,0,0-.63,4.31,3.06,3.06,0,0,0,4.42.53l.14-.12a2,2,0,0,1,2.78.26l5,6,3.4-2.83-5-6a2,2,0,0,1,.26-2.78h0A3.19,3.19,0,0,0,84.34,33a3.06,3.06,0,0,0-4.42-.53"></path>
            <path style="fill:#0d63ff" d="M98.44,119.69l8.53.79a3.2,3.2,0,0,0,3.5-2.59,3.08,3.08,0,0,0-2.76-3.51l-.18,0a2,2,0,0,1-1.78-2.14l.73-7.84-4.41-.41-.73,7.84a2,2,0,0,1-2.15,1.78h0a3.17,3.17,0,0,0-3.49,2.59,3.07,3.07,0,0,0,2.75,3.51"></path>
            <path style="fill:#0d63ff" d="M116,24.81l-8.53-.8a3.19,3.19,0,0,0-3.5,2.6,3.07,3.07,0,0,0,2.76,3.5l.18,0a2,2,0,0,1,1.78,2.15L108,40.11l4.41.41.73-7.83a2,2,0,0,1,2.15-1.78h0a3.19,3.19,0,0,0,3.49-2.6,3.06,3.06,0,0,0-2.75-3.5"></path>
            <path style="fill:#0d63ff" d="M154.68,81l.79-8.52a3.19,3.19,0,0,0-2.59-3.5,3.07,3.07,0,0,0-3.51,2.75V72a2,2,0,0,1-2.15,1.78L139.38,73,139,77.42l7.84.73a2,2,0,0,1,1.78,2.14h0a3.19,3.19,0,0,0,2.59,3.5A3.07,3.07,0,0,0,154.68,81"></path>
            <path style="fill:#0d63ff" d="M59.8,63.45,59,72a3.18,3.18,0,0,0,2.59,3.49,3.07,3.07,0,0,0,3.51-2.75v-.18a2,2,0,0,1,2.15-1.78l7.83.72.41-4.41-7.83-.73A2,2,0,0,1,65.9,64.2h0a3.2,3.2,0,0,0-2.59-3.5,3.08,3.08,0,0,0-3.51,2.76"></path>
            <path style="fill:#0d63ff" d="M93.27,98.06h0a2.29,2.29,0,0,1,.92,3.11l-4.35,8a2.29,2.29,0,0,1-4-2.18L90.16,99a2.31,2.31,0,0,1,3.11-.93"></path>
            <path style="fill:#0d63ff" d="M127.75,34.35h0a2.3,2.3,0,0,1,.92,3.11l-4.36,8a2.29,2.29,0,1,1-4-2.19l4.35-8a2.29,2.29,0,0,1,3.11-.93"></path>
            <path style="fill:#0d63ff" d="M133.06,86.22h0a2.28,2.28,0,0,1,3.1-.93l8.05,4.36a2.29,2.29,0,1,1-2.18,4L134,89.32a2.28,2.28,0,0,1-.92-3.1"></path>
            <path style="fill:#0d63ff" d="M69.34,51.74h0a2.29,2.29,0,0,1,3.11-.92l8,4.35a2.29,2.29,0,0,1-2.18,4l-8-4.35a2.31,2.31,0,0,1-.93-3.11"></path>
            <path style="fill:#0d63ff" d="M115.62,100.38h0a2.3,2.3,0,0,1,2.85,1.54l2.61,8.77a2.29,2.29,0,1,1-4.39,1.31l-2.62-8.77a2.29,2.29,0,0,1,1.55-2.85"></path>
            <path style="fill:#0d63ff" d="M94.94,31h0a2.29,2.29,0,0,1,2.85,1.54l2.61,8.77A2.29,2.29,0,1,1,96,42.57L93.4,33.8A2.29,2.29,0,0,1,94.94,31"></path>
            <path style="fill:#0d63ff" d="M135.37,63.87h0A2.29,2.29,0,0,1,136.91,61l8.78-2.61A2.29,2.29,0,1,1,147,62.8l-8.77,2.61a2.29,2.29,0,0,1-2.85-1.54"></path>
            <path style="fill:#0d63ff" d="M65.94,84.54h0a2.29,2.29,0,0,1,1.54-2.85l8.78-2.61a2.29,2.29,0,1,1,1.3,4.39l-8.77,2.61a2.28,2.28,0,0,1-2.85-1.54"></path>
            <path style="fill:#191970" d="M107.75,94c-2.09,0-2.92-2.27-3.73-4.47-.15-.41-.35-1-.54-1.43-.37.32-.77.69-1.07,1-1.77,1.65-3.59,3.35-5.53,2.31s-1.5-3.51-1.09-5.89c.08-.4.17-.94.23-1.42-.5.09-1.07.22-1.49.32-2.31.53-4.71,1.1-5.83-.75s.45-3.76,2-5.59c.27-.32.64-.76.94-1.16-.47-.16-1-.33-1.42-.45-2.28-.7-4.65-1.42-4.72-3.59s2.25-3,4.48-3.82c.4-.15,1-.35,1.42-.54-.31-.37-.69-.77-1-1.07-1.66-1.77-3.37-3.59-2.32-5.53S91.62,60.38,94,60.8c.4.07,1,.17,1.43.23-.1-.5-.23-1.07-.33-1.49-.53-2.32-1.09-4.71.76-5.84s3.75.45,5.58,2c.33.27.77.64,1.16.94.16-.47.33-1,.46-1.42.69-2.29,1.41-4.66,3.58-4.72s3,2.24,3.83,4.48c.14.4.35,1,.54,1.42.37-.31.77-.69,1.07-1,1.76-1.65,3.57-3.35,5.53-2.31s1.5,3.51,1.09,5.89c-.08.4-.17,1-.24,1.42.5-.09,1.08-.22,1.5-.32,2.31-.53,4.7-1.09,5.83.75s-.45,3.76-2,5.59c-.28.33-.64.76-1,1.16.47.17,1,.33,1.42.45,2.29.7,4.66,1.42,4.72,3.59s-2.24,3-4.47,3.82c-.4.15-1,.36-1.42.55.31.36.68.77,1,1.06,1.66,1.77,3.36,3.6,2.32,5.53s-3.52,1.51-5.9,1.09l-1.42-.23c.09.5.23,1.08.33,1.49.53,2.32,1.08,4.71-.76,5.84s-3.76-.45-5.59-2c-.32-.26-.76-.63-1.16-.94-.16.47-.32,1-.45,1.42-.69,2.29-1.41,4.66-3.59,4.72Zm-3.86-10.36a2.62,2.62,0,0,1,.62.07c1.7.41,2.39,2.24,3.17,4.36.66-2.17,1.24-4,2.92-4.53s3.19.75,4.92,2.2c-.51-2.21-.93-4.12.28-5.39s3.14-.93,5.36-.54l.09,0a.46.46,0,0,0-.07-.07c-1.55-1.66-2.88-3.09-2.48-4.78s2.24-2.4,4.37-3.18c-2.17-.66-4-1.24-4.54-2.91s.75-3.19,2.2-4.93c-2.2.51-4.11.93-5.39-.27s-.93-3.13-.54-5.37c0,0,0,0,0-.08l-.07.06c-1.65,1.55-3.08,2.88-4.78,2.48s-2.39-2.23-3.17-4.36c-.67,2.17-1.25,4-2.92,4.53s-3.19-.74-4.93-2.2c.52,2.21.94,4.12-.27,5.39s-3.13.93-5.36.54h-.09l.06.06c1.55,1.66,2.89,3.09,2.48,4.79s-2.23,2.39-4.36,3.17c2.17.66,4,1.25,4.54,2.92s-.75,3.18-2.21,4.92c2.21-.51,4.12-.93,5.39.27s.94,3.13.54,5.37a.22.22,0,0,1,0,.08l.06-.06c1.45-1.35,2.73-2.55,4.17-2.55"></path>
            <rect transform="translate(-87.81 116.43) rotate(-45)" height="18.06" style="fill:#191970" x="84.31" width="24.66" y="155.19"></rect>
            <path style="fill:#bcd7ef" d="M206.15,156.1a71.7,71.7,0,1,1,0-101.4,71.7,71.7,0,0,1,0,101.4"></path>
        </g>
        <g style="clip-path:url(#clip-path-2)">
            <rect height="118.45" style="fill:#fff" x="93.09" width="121.93" y="46.6"></rect>
            <path style="fill:#78b5e2" d="M133.7,118.77c3.38-.32,7.37,2.07,10.75,1.06s5.41-5.18,8.41-6.76,7.69-1,10.34-3.12,3-6.84,5.17-9.48,6.71-3.81,8.35-6.85.14-7.43,1.16-10.73,4.75-6.06,5.11-9.52-2.71-6.88-3-10.36S182,55.64,181,52.27s-5.18-5.42-6.76-8.42-1-7.69-3.12-10.34-6.84-3-9.48-5.17-3.81-6.71-6.85-8.35-7.43-.14-10.74-1.16-6.05-4.75-9.51-5.11-6.88,2.72-10.36,3-7.37-2.06-10.75-1.06S108,20.89,105,22.47s-7.69,1-10.34,3.12-3,6.83-5.17,9.48-6.71,3.81-8.35,6.84S81,49.34,80,52.65s-4.75,6.05-5.11,9.51,2.71,6.88,3,10.36-2.06,7.37-1.06,10.75,5.19,5.41,6.77,8.42,1,7.68,3.12,10.33,6.83,3,9.48,5.17,3.81,6.71,6.84,8.35,7.43.14,10.74,1.17,6,4.75,9.51,5.11,6.88-2.72,10.36-3"></path>
            <path style="fill:#0d63ff" d="M134.18,123.87c3.72-.35,8.1,2.27,11.82,1.17s5.95-5.71,9.26-7.45,8.45-1.06,11.37-3.43,3.27-7.51,5.68-10.42,7.38-4.2,9.19-7.53.15-8.17,1.28-11.81,5.22-6.66,5.62-10.47-3-7.56-3.35-11.39,2.27-8.11,1.17-11.82-5.71-6-7.45-9.26-1.06-8.45-3.43-11.37-7.51-3.28-10.43-5.69-4.19-7.38-7.52-9.19-8.17-.15-11.81-1.27-6.66-5.23-10.47-5.62-7.56,3-11.4,3.35-8.1-2.28-11.82-1.17-6,5.7-9.25,7.44S94.18,19,91.27,21.37,88,28.89,85.58,31.8,78.2,36,76.39,39.33s-.15,8.17-1.27,11.81S69.89,57.8,69.5,61.6s3,7.57,3.34,11.4-2.27,8.1-1.16,11.82,5.7,6,7.44,9.26,1.06,8.45,3.43,11.37,7.52,3.27,10.43,5.68,4.19,7.38,7.53,9.19,8.17.15,11.81,1.28,6.66,5.22,10.46,5.62,7.57-3,11.4-3.35m-10.13-8.93c-3-.3-4.94-5.39-7.74-6.26s-7.34,2.19-9.93.79-2.49-6.85-4.77-8.74S94,100,92.13,97.67s.34-7.26-1-9.91-6.72-3.57-7.58-6.46,3.08-6.67,2.81-9.56-4.84-6-4.54-8.87,5.39-4.93,6.26-7.74-2.19-7.34-.79-9.93S94.1,42.71,96,40.43s.75-7.6,3.06-9.48,7.25.34,9.9-1.05,3.58-6.72,6.46-7.58,6.67,3.08,9.56,2.81,6-4.84,8.87-4.54,4.94,5.39,7.75,6.26,7.33-2.19,9.93-.78,2.48,6.85,4.77,8.74,7.6.75,9.47,3.06-.34,7.25,1.06,9.9,6.71,3.58,7.57,6.47-3.08,6.66-2.8,9.55,4.84,6,4.53,8.87-5.39,4.94-6.26,7.75,2.19,7.33.79,9.93-6.86,2.49-8.74,4.77-.75,7.6-3.06,9.48-7.26-.35-9.91,1-3.57,6.71-6.46,7.57-6.67-3.07-9.56-2.8-6,4.84-8.87,4.53"></path>
            <path style="fill:#0d63ff" d="M59.57,115.43l9.55,11.5a5.56,5.56,0,0,0,7.51,1.12,5.35,5.35,0,0,0,.92-7.72l-.2-.25a3.44,3.44,0,0,1,.45-4.84l10.56-8.77-4.93-6-10.57,8.77a3.44,3.44,0,0,1-4.84-.45v0a5.56,5.56,0,0,0-7.51-1.11,5.36,5.36,0,0,0-.93,7.72"></path>
            <path style="fill:#0d63ff" d="M198.32,20.1,188.78,8.6a5.56,5.56,0,0,0-7.51-1.11,5.36,5.36,0,0,0-.93,7.72l.2.25a3.42,3.42,0,0,1-.45,4.84l-10.56,8.77L174.47,35,185,26.25a3.43,3.43,0,0,1,4.84.45h0a5.56,5.56,0,0,0,7.51,1.11,5.36,5.36,0,0,0,.93-7.72"></path>
            <path style="fill:#0d63ff" d="M176.61,137.14l11.5-9.54a5.56,5.56,0,0,0,1.12-7.51,5.37,5.37,0,0,0-7.73-.93l-.24.2a3.43,3.43,0,0,1-4.85-.45l-8.76-10.56-6,4.94,8.77,10.56a3.44,3.44,0,0,1-.45,4.84h0a5.58,5.58,0,0,0-1.11,7.52,5.36,5.36,0,0,0,7.72.92"></path>
            <path style="fill:#0d63ff" d="M81.28-1.61,69.78,7.94a5.55,5.55,0,0,0-1.11,7.51,5.36,5.36,0,0,0,7.72.93l.25-.21a3.44,3.44,0,0,1,4.84.45l8.77,10.56,5.94-4.93L87.43,11.68a3.43,3.43,0,0,1,.45-4.84h0A5.55,5.55,0,0,0,89-.68a5.36,5.36,0,0,0-7.72-.93"></path>
            <path style="fill:#0d63ff" d="M113.6,150.53l14.88,1.38a5.54,5.54,0,0,0,6.09-4.52,5.36,5.36,0,0,0-4.8-6.12l-.32,0a3.43,3.43,0,0,1-3.1-3.74l1.27-13.67-7.7-.71-1.27,13.66a3.45,3.45,0,0,1-3.74,3.11h0a5.56,5.56,0,0,0-6.1,4.52,5.37,5.37,0,0,0,4.81,6.12"></path>
            <path style="fill:#0d63ff" d="M211.71,83.12l1.38-14.88a5.56,5.56,0,0,0-4.52-6.1,5.36,5.36,0,0,0-6.12,4.8l0,.32a3.45,3.45,0,0,1-3.74,3.11L185,69.1l-.72,7.69L198,78.07a3.44,3.44,0,0,1,3.11,3.74h0a5.56,5.56,0,0,0,4.52,6.1,5.36,5.36,0,0,0,6.12-4.8"></path>
            <path style="fill:#0d63ff" d="M46.19,52.42,44.8,67.3a5.57,5.57,0,0,0,4.53,6.1,5.36,5.36,0,0,0,6.11-4.81l0-.32a3.44,3.44,0,0,1,3.75-3.1l13.66,1.27.72-7.7L59.93,57.47a3.45,3.45,0,0,1-3.11-3.74v0a5.58,5.58,0,0,0-4.53-6.1,5.36,5.36,0,0,0-6.11,4.81"></path>
            <path style="fill:#0d63ff" d="M104.58,112.81h0a4,4,0,0,1,1.61,5.41l-7.6,14.05a4,4,0,1,1-7-3.81l7.6-14a4,4,0,0,1,5.42-1.61"></path>
            <path style="fill:#0d63ff" d="M174,92.14h0a4,4,0,0,1,5.41-1.61l14,7.6a4,4,0,1,1-3.81,7l-14-7.59A4,4,0,0,1,174,92.14"></path>
            <path style="fill:#0d63ff" d="M62.83,32h0a4,4,0,0,1,5.42-1.61l14,7.6a4,4,0,1,1-3.8,7l-14-7.6A4,4,0,0,1,62.83,32"></path>
            <path style="fill:#0d63ff" d="M143.56,116.85h0a4,4,0,0,1,5,2.69l4.56,15.3a4,4,0,1,1-7.66,2.28l-4.56-15.3a4,4,0,0,1,2.69-5"></path>
            <path style="fill:#0d63ff" d="M178,53.15h0a4,4,0,0,1,2.69-5L196,43.63a4,4,0,1,1,2.28,7.66L183,55.84a4,4,0,0,1-5-2.69"></path>
            <path style="fill:#0d63ff" d="M56.9,89.22h0a4,4,0,0,1,2.69-5L74.9,79.69a4,4,0,1,1,2.28,7.66L61.87,91.91a4,4,0,0,1-5-2.69"></path>
            <path style="fill:#191970" d="M129.86,104.25c-2.65,0-3.81-3.17-5.15-6.84a25.28,25.28,0,0,0-1.81-4.21,26.4,26.4,0,0,0-3.38,2.85c-2.94,2.75-5.48,5.16-7.94,3.81s-1.85-4.76-1.16-8.73a27.89,27.89,0,0,0,.55-4.4,36.47,36.47,0,0,0-4.52.8c-3.86.88-7.18,1.66-8.6-.66s.78-5,3.34-8a27.3,27.3,0,0,0,2.72-3.62,27.24,27.24,0,0,0-4.26-1.54c-3.81-1.16-7.11-2.16-7.19-4.9s3.13-3.89,6.84-5.25a26.28,26.28,0,0,0,4.22-1.81,28.15,28.15,0,0,0-2.85-3.38c-2.76-2.94-5.15-5.49-3.82-7.94s4.76-1.85,8.74-1.15a27.8,27.8,0,0,0,4.39.54,26.44,26.44,0,0,0-.79-4.52c-.89-3.85-1.66-7.18.65-8.6s5,.77,8,3.34a26.89,26.89,0,0,0,3.61,2.71A26,26,0,0,0,123,38.48c1.16-3.82,2.16-7.12,4.9-7.2H128c2.64,0,3.8,3.17,5.14,6.84A27.21,27.21,0,0,0,135,42.34a26.69,26.69,0,0,0,3.38-2.86c2.95-2.75,5.49-5.14,7.95-3.81s1.84,4.76,1.15,8.74a26.54,26.54,0,0,0-.54,4.39,24.65,24.65,0,0,0,4.51-.79c3.85-.89,7.19-1.66,8.61.66s-.78,5-3.35,8A26.67,26.67,0,0,0,154,60.32a27.29,27.29,0,0,0,4.26,1.53c3.81,1.17,7.11,2.17,7.19,4.9s-3.13,3.89-6.84,5.25a27.64,27.64,0,0,0-4.22,1.81,26.69,26.69,0,0,0,2.86,3.38c2.75,3,5.14,5.5,3.81,8s-4.76,1.85-8.74,1.15a28.87,28.87,0,0,0-4.39-.54,25.75,25.75,0,0,0,.8,4.52c.89,3.85,1.66,7.18-.66,8.6s-5-.78-8-3.34a25.82,25.82,0,0,0-3.61-2.72,27,27,0,0,0-1.54,4.24c-1.16,3.83-2.16,7.12-4.9,7.2Zm-6.74-15.14a3,3,0,0,1,.72.09c2.25.54,3.32,3.46,4.56,6.85.39,1,.95,2.57,1.43,3.55a38.19,38.19,0,0,0,1.27-3.69c1.08-3.57,1.93-6.38,4.13-7s4.45,1.25,7.31,3.64c.86.72,2.14,1.79,3.07,2.4a37.83,37.83,0,0,0-.74-3.76c-.82-3.51-1.52-6.55.07-8.24s4.42-1.14,8-.5A36.44,36.44,0,0,0,157,83a36.32,36.32,0,0,0-2.68-3.09c-2.51-2.69-4.5-4.81-4-7s3.47-3.33,6.87-4.57c1-.38,2.56-.94,3.54-1.43a38.14,38.14,0,0,0-3.69-1.26c-3.57-1.08-6.39-1.94-7-4.13s1.24-4.46,3.64-7.32a36.67,36.67,0,0,0,2.39-3.07c-1.08.13-2.67.5-3.75.75-3.52.81-6.55,1.51-8.24-.08s-1.14-4.41-.5-8a36.53,36.53,0,0,0,.55-4,37.67,37.67,0,0,0-3.08,2.67c-2.69,2.52-4.81,4.51-7,4s-3.32-3.47-4.56-6.86c-.38-1-.94-2.57-1.43-3.55a38.14,38.14,0,0,0-1.26,3.69c-1.08,3.57-1.94,6.39-4.13,7s-4.45-1.24-7.32-3.63a34.81,34.81,0,0,0-3.07-2.4c.13,1.08.49,2.67.74,3.75.82,3.52,1.52,6.56-.07,8.24s-4.41,1.15-8,.5a36.53,36.53,0,0,0-4-.55,34.6,34.6,0,0,0,2.67,3.08c2.52,2.69,4.5,4.82,4,7s-3.47,3.32-6.86,4.57a37.92,37.92,0,0,0-3.54,1.43,37,37,0,0,0,3.68,1.25c3.57,1.09,6.39,1.94,7,4.14s-1.24,4.45-3.63,7.31c-.72.87-1.79,2.14-2.4,3.07,1.09-.13,2.67-.49,3.75-.74,3.51-.82,6.55-1.52,8.24.07s1.14,4.42.5,8a36.7,36.7,0,0,0-.55,4,33.17,33.17,0,0,0,3.08-2.68c2.4-2.24,4.34-4.06,6.29-4.06"></path>
        </g>
        <g style="clip-path:url(#clip-path)">
            <path style="fill:#191970" d="M155.45,160.46a55.06,55.06,0,1,1,39-16.11,54.9,54.9,0,0,1-39,16.11m0-106.18a51.13,51.13,0,1,0,36.17,15,51,51,0,0,0-36.17-15"></path>
            <path style="fill:#bcd7ef" d="M105.89,166.14,94.71,155a7.42,7.42,0,0,1,0-10.48l6.89-6.88,21.65,21.66-6.88,6.88a7.42,7.42,0,0,1-10.48,0"></path>
            <path style="fill:#78b5e2" d="M42.79,230,30.87,218.06a6.87,6.87,0,0,1,0-9.73L76.4,162.79a6.89,6.89,0,0,1,9.73,0l11.93,11.93a6.87,6.87,0,0,1,0,9.73L52.52,230a6.87,6.87,0,0,1-9.73,0"></path>
        </g>
    </g>
</svg>