<svg xmlns:xlink="http://www.w3.org/1999/xlink" width="128" xmlns="http://www.w3.org/2000/svg" version="1.1" viewBox="0 0 256 256" height="128" style="font-size: 128px; color: rgb(205, 205, 205);">
    <g transform="matrix(0.99999999,0,0,0.99999999,5.0000017e-08,5.6445311e-15)" style="fill: rgb(205, 205, 205);">
        <g transform="matrix(4.4912281,0,0,4.4912281,6.7368421,0)" style="fill: rgb(205, 205, 205);">
            <g id="surface1" style="fill: rgb(205, 205, 205);">
                <path d="M 44 29.496094 C 44 39.160156 36.164062 46.992188 26.503906 46.992188 C 16.839844 46.992188 9.003906 39.160156 9.003906 29.496094 C 9.003906 19.832031 16.839844 12 26.503906 12 C 36.164062 12 44 19.835938 44 29.496094 " style="stroke: none; fill-rule: nonzero; fill: rgb(205, 205, 205); fill-opacity: 1;"></path>
                <path d="M 220 530 L 40 400 L 320 320 L 500 450 Z M 220 530 " transform="matrix(0.1,0,0,-0.1,0,57)" style="fill: rgb(205, 205, 205); stroke-width: 20; stroke-linecap: butt; stroke-linejoin: round; stroke: rgb(57, 81, 133); stroke-opacity: 1; stroke-miterlimit: 10;"></path>
                <path d="M 150 199.453125 L 120 177.773438 " transform="matrix(0.1,0,0,-0.1,0,57)" style="fill: rgb(205, 205, 205); stroke-width: 20; stroke-linecap: butt; stroke-linejoin: round; stroke: rgb(57, 81, 133); stroke-opacity: 1; stroke-miterlimit: 10;"></path>
                <path d="M 280 232.851562 L 220 250 L 170 213.90625 " transform="matrix(0.1,0,0,-0.1,0,57)" style="fill: rgb(205, 205, 205); stroke-width: 20; stroke-linecap: butt; stroke-linejoin: round; stroke: rgb(57, 81, 133); stroke-opacity: 1; stroke-miterlimit: 10;"></path>
                <path d="M 349.960938 212.851562 L 299.960938 227.148438 " transform="matrix(0.1,0,0,-0.1,0,57)" style="fill: rgb(205, 205, 205); stroke-width: 20; stroke-linecap: butt; stroke-linejoin: round; stroke: rgb(57, 81, 133); stroke-opacity: 1; stroke-miterlimit: 10;"></path>
                <path d="M 410.039062 195.703125 L 370.078125 207.148438 " transform="matrix(0.1,0,0,-0.1,0,57)" style="fill: rgb(205, 205, 205); stroke-width: 20; stroke-linecap: butt; stroke-linejoin: round; stroke: rgb(57, 81, 133); stroke-opacity: 1; stroke-miterlimit: 10;"></path>
                <path d="M 100 163.320312 L 40 120 L 320 40 L 500 170 L 430.039062 190 " transform="matrix(0.1,0,0,-0.1,0,57)" style="fill: rgb(205, 205, 205); stroke-width: 20; stroke-linecap: butt; stroke-linejoin: round; stroke: rgb(57, 81, 133); stroke-opacity: 1; stroke-miterlimit: 10;"></path>
                <path d="M 40 400 L 40 120 " transform="matrix(0.1,0,0,-0.1,0,57)" style="fill: rgb(205, 205, 205); stroke-width: 20; stroke-linecap: butt; stroke-linejoin: round; stroke: rgb(57, 81, 133); stroke-opacity: 1; stroke-miterlimit: 10;"></path>
                <path d="M 320 320 L 320 40 " transform="matrix(0.1,0,0,-0.1,0,57)" style="fill: rgb(205, 205, 205); stroke-width: 20; stroke-linecap: butt; stroke-linejoin: round; stroke: rgb(57, 81, 133); stroke-opacity: 1; stroke-miterlimit: 10;"></path>
                <path d="M 220 310 L 220 250 " transform="matrix(0.1,0,0,-0.1,0,57)" style="fill: rgb(205, 205, 205); stroke-width: 20; stroke-linecap: butt; stroke-linejoin: round; stroke: rgb(57, 81, 133); stroke-opacity: 1; stroke-miterlimit: 10;"></path>
                <path d="M 220 380 L 220 330 " transform="matrix(0.1,0,0,-0.1,0,57)" style="fill: rgb(205, 205, 205); stroke-width: 20; stroke-linecap: butt; stroke-linejoin: round; stroke: rgb(57, 81, 133); stroke-opacity: 1; stroke-miterlimit: 10;"></path>
                <path d="M 220 440 L 220 400 " transform="matrix(0.1,0,0,-0.1,0,57)" style="fill: rgb(205, 205, 205); stroke-width: 20; stroke-linecap: butt; stroke-linejoin: round; stroke: rgb(57, 81, 133); stroke-opacity: 1; stroke-miterlimit: 10;"></path>
                <path d="M 220 530 L 220 460 " transform="matrix(0.1,0,0,-0.1,0,57)" style="fill: rgb(205, 205, 205); stroke-width: 20; stroke-linecap: butt; stroke-linejoin: round; stroke: rgb(57, 81, 133); stroke-opacity: 1; stroke-miterlimit: 10;"></path>
                <path d="M 500 450 L 500 170 " transform="matrix(0.1,0,0,-0.1,0,57)" style="fill: rgb(205, 205, 205); stroke-width: 20; stroke-linecap: butt; stroke-linejoin: round; stroke: rgb(57, 81, 133); stroke-opacity: 1; stroke-miterlimit: 10;"></path>
                <path d="M 35 53 C 35 54.65625 33.65625 56 32 56 C 30.34375 56 29 54.65625 29 53 C 29 51.34375 30.34375 50 32 50 C 33.65625 50 35 51.34375 35 53 " style="stroke: none; fill-rule: nonzero; fill: rgb(205, 205, 205); fill-opacity: 1;"></path>
                <path d="M 350 40 C 350 23.4375 336.5625 10 320 10 C 303.4375 10 290 23.4375 290 40 C 290 56.5625 303.4375 70 320 70 C 336.5625 70 350 56.5625 350 40 Z M 350 40 " transform="matrix(0.1,0,0,-0.1,0,57)" style="fill: rgb(205, 205, 205); stroke-width: 20; stroke-linecap: butt; stroke-linejoin: miter; stroke: rgb(57, 81, 133); stroke-opacity: 1; stroke-miterlimit: 10;"></path>
                <path d="M 53 40 C 53 41.65625 51.65625 43 50 43 C 48.34375 43 47 41.65625 47 40 C 47 38.34375 48.34375 37 50 37 C 51.65625 37 53 38.34375 53 40 " style="stroke: none; fill-rule: nonzero; fill: rgb(205, 205, 205); fill-opacity: 1;"></path>
                <path d="M 530 170 C 530 153.4375 516.5625 140 500 140 C 483.4375 140 470 153.4375 470 170 C 470 186.5625 483.4375 200 500 200 C 516.5625 200 530 186.5625 530 170 Z M 530 170 " transform="matrix(0.1,0,0,-0.1,0,57)" style="fill: rgb(205, 205, 205); stroke-width: 20; stroke-linecap: butt; stroke-linejoin: miter; stroke: rgb(57, 81, 133); stroke-opacity: 1; stroke-miterlimit: 10;"></path>
                <path d="M 25 32 C 25 33.65625 23.65625 35 22 35 C 20.34375 35 19.003906 33.65625 19.003906 32 C 19.003906 30.34375 20.34375 29 22 29 C 23.65625 29 25 30.34375 25 32 " style="stroke: none; fill-rule: nonzero; fill: rgb(205, 205, 205); fill-opacity: 1;"></path>
                <path d="M 250 250 C 250 233.4375 236.5625 220 220 220 C 203.4375 220 190.039062 233.4375 190.039062 250 C 190.039062 266.5625 203.4375 280 220 280 C 236.5625 280 250 266.5625 250 250 Z M 250 250 " transform="matrix(0.1,0,0,-0.1,0,57)" style="fill: rgb(205, 205, 205); stroke-width: 20; stroke-linecap: butt; stroke-linejoin: miter; stroke: rgb(57, 81, 133); stroke-opacity: 1; stroke-miterlimit: 10;"></path>
                <path d="M 7 45 C 7 46.65625 5.65625 48 4 48 C 2.34375 48 1 46.65625 1 45 C 1 43.34375 2.34375 42 4 42 C 5.65625 42 7 43.34375 7 45 " style="stroke: none; fill-rule: nonzero; fill: rgb(205, 205, 205); fill-opacity: 1;"></path>
                <path d="M 70 120 C 70 103.4375 56.5625 90 40 90 C 23.4375 90 10 103.4375 10 120 C 10 136.5625 23.4375 150 40 150 C 56.5625 150 70 136.5625 70 120 Z M 70 120 " transform="matrix(0.1,0,0,-0.1,0,57)" style="fill: rgb(205, 205, 205); stroke-width: 20; stroke-linecap: butt; stroke-linejoin: miter; stroke: rgb(57, 81, 133); stroke-opacity: 1; stroke-miterlimit: 10;"></path>
                <path d="M 7 17 C 7 18.65625 5.65625 20 4 20 C 2.34375 20 1 18.65625 1 17 C 1 15.34375 2.34375 14 4 14 C 5.65625 14 7 15.34375 7 17 " style="stroke: none; fill-rule: nonzero; fill: rgb(205, 205, 205); fill-opacity: 1;"></path>
                <path d="M 70 400 C 70 383.4375 56.5625 370 40 370 C 23.4375 370 10 383.4375 10 400 C 10 416.5625 23.4375 430 40 430 C 56.5625 430 70 416.5625 70 400 Z M 70 400 " transform="matrix(0.1,0,0,-0.1,0,57)" style="fill: rgb(205, 205, 205); stroke-width: 20; stroke-linecap: butt; stroke-linejoin: miter; stroke: rgb(57, 81, 133); stroke-opacity: 1; stroke-miterlimit: 10;"></path>
                <path d="M 25 4 C 25 5.65625 23.65625 7 22 7 C 20.34375 7 19 5.65625 19 4 C 19 2.34375 20.34375 1 22 1 C 23.65625 1 25 2.34375 25 4 " style="stroke: none; fill-rule: nonzero; fill: rgb(205, 205, 205); fill-opacity: 1;"></path>
                <path d="M 250 530 C 250 513.4375 236.5625 500 220 500 C 203.4375 500 190 513.4375 190 530 C 190 546.5625 203.4375 560 220 560 C 236.5625 560 250 546.5625 250 530 Z M 250 530 " transform="matrix(0.1,0,0,-0.1,0,57)" style="fill: rgb(205, 205, 205); stroke-width: 20; stroke-linecap: butt; stroke-linejoin: miter; stroke: rgb(57, 81, 133); stroke-opacity: 1; stroke-miterlimit: 10;"></path>
                <path d="M 53 12 C 53 13.65625 51.65625 15 50 15 C 48.34375 15 47 13.65625 47 12 C 47 10.34375 48.34375 9 50 9 C 51.65625 9 53 10.34375 53 12 " style="stroke: none; fill-rule: nonzero; fill: rgb(205, 205, 205); fill-opacity: 1;"></path>
                <path d="M 530 450 C 530 433.4375 516.5625 420 500 420 C 483.4375 420 470 433.4375 470 450 C 470 466.5625 483.4375 480 500 480 C 516.5625 480 530 466.5625 530 450 Z M 530 450 " transform="matrix(0.1,0,0,-0.1,0,57)" style="fill: rgb(205, 205, 205); stroke-width: 20; stroke-linecap: butt; stroke-linejoin: miter; stroke: rgb(57, 81, 133); stroke-opacity: 1; stroke-miterlimit: 10;"></path>
                <path d="M 35 25 C 35 26.65625 33.65625 28 32 28 C 30.34375 28 29 26.65625 29 25 C 29 23.34375 30.34375 22 32 22 C 33.65625 22 35 23.34375 35 25 " style="stroke: none; fill-rule: nonzero; fill: rgb(205, 205, 205); fill-opacity: 1;"></path>
                <path d="M 350 320 C 350 303.4375 336.5625 290 320 290 C 303.4375 290 290 303.4375 290 320 C 290 336.5625 303.4375 350 320 350 C 336.5625 350 350 336.5625 350 320 Z M 350 320 " transform="matrix(0.1,0,0,-0.1,0,57)" style="fill: rgb(205, 205, 205); stroke-width: 20; stroke-linecap: butt; stroke-linejoin: miter; stroke: rgb(57, 81, 133); stroke-opacity: 1; stroke-miterlimit: 10;"></path>
            </g>
        </g>
    </g>
</svg>