<svg width="128" height="128" viewBox="0 0 256 256" xmlns="http://www.w3.org/2000/svg" xmlns:xlink="http://www.w3.org/1999/xlink" version="1.2" baseProfile="tiny" style="font-size: 128px; color: rgb(19, 150, 219);">
<title style="fill: rgb(19, 150, 219);">Qt SVG Document</title>
<desc style="fill: rgb(19, 150, 219);">Generated with Qt</desc>
<defs style="fill: rgb(19, 150, 219);">
</defs>
<g fill="none" stroke="black" stroke-width="1" fill-rule="evenodd" stroke-linecap="square" stroke-linejoin="bevel" style="fill: rgb(19, 150, 219);">

<g fill="none" stroke="#000000" stroke-opacity="1" stroke-width="1" stroke-linecap="square" stroke-linejoin="bevel" transform="matrix(0.0666667,0,0,0.0666667,0.933333,0.933333)" font-family="微软雅黑" font-size="12" font-weight="400" font-style="normal" style="fill: rgb(19, 150, 219);">
</g>

<g fill="none" stroke="#000000" stroke-opacity="1" stroke-width="1" stroke-linecap="square" stroke-linejoin="bevel" transform="matrix(0.0666667,0,0,0.0666667,0,0)" font-family="微软雅黑" font-size="12" font-weight="400" font-style="normal" style="fill: rgb(19, 150, 219);">
</g>

<g fill="none" stroke="#000000" stroke-opacity="1" stroke-width="1" stroke-linecap="square" stroke-linejoin="bevel" transform="matrix(0.0666667,0,0,0.0666667,0,0)" font-family="微软雅黑" font-size="12" font-weight="400" font-style="normal" style="fill: rgb(19, 150, 219);">
</g>

<g fill="none" stroke="#000000" stroke-opacity="1" stroke-width="1" stroke-linecap="square" stroke-linejoin="bevel" transform="matrix(0.0666667,0,0,0.0666667,0,0)" font-family="微软雅黑" font-size="12" font-weight="400" font-style="normal" style="fill: rgb(19, 150, 219);">
</g>

<g fill="none" stroke="#000000" stroke-opacity="1" stroke-width="1" stroke-linecap="square" stroke-linejoin="bevel" transform="matrix(0.0666667,0,0,0.0666667,0,0)" font-family="微软雅黑" font-size="12" font-weight="400" font-style="normal" style="fill: rgb(19, 150, 219);">
</g>

<g fill="none" stroke="#000000" stroke-opacity="1" stroke-width="1" stroke-linecap="square" stroke-linejoin="bevel" transform="matrix(0.0666667,0,0,0.0666667,0,0)" font-family="微软雅黑" font-size="12" font-weight="400" font-style="normal" style="fill: rgb(19, 150, 219);">
</g>

<g fill="#333333" fill-opacity="1" stroke="none" transform="matrix(12.7964,0,0,12.7964,-1.02578,53.3408)" font-family="Arial" font-size="16" font-weight="400" font-style="normal" style="fill: rgb(19, 150, 219);">
<path vector-effect="none" fill-rule="nonzero" d="M2.60526,0.8417 C10.1004,8.33684 10.1004,8.33684 10.1004,8.33684 C17.5955,0.521052 17.5955,0.521052 17.5955,0.521052 C17.9563,0.521052 18.317,0.0801619 18.6777,0.0801619 C19.3992,0.0801619 20.0806,0.8417 20.0806,1.56316 C20.0806,1.92389 20.0806,2.28461 19.7198,2.64534 C11.2227,11.2227 11.2227,11.2227 11.2227,11.2227 C10.7818,11.5834 10.4611,11.5834 10.1004,11.5834 C9.73967,11.5834 9.37894,11.5834 9.01821,11.2227 C0.44089,2.64534 0.44089,2.64534 0.44089,2.64534 C0.0801619,2.28461 0.0801619,1.92389 0.0801619,1.56316 C0.0801619,0.8417 0.8417,0.0801619 1.56316,0.0801619 C1.92389,0.0801619 2.28461,0.521052 2.60526,0.8417 " style="fill: rgb(19, 150, 219);"></path>
</g>

<g fill="none" stroke="#000000" stroke-opacity="1" stroke-width="1" stroke-linecap="square" stroke-linejoin="bevel" transform="matrix(0.0666667,0,0,0.0666667,0,0)" font-family="微软雅黑" font-size="12" font-weight="400" font-style="normal" style="fill: rgb(19, 150, 219);">
</g>

<g fill="none" stroke="#000000" stroke-opacity="1" stroke-width="1" stroke-linecap="square" stroke-linejoin="bevel" transform="matrix(0.0666667,0,0,0.0666667,0,0)" font-family="微软雅黑" font-size="12" font-weight="400" font-style="normal" style="fill: rgb(19, 150, 219);">
</g>

<g fill="none" stroke="#000000" stroke-opacity="1" stroke-width="1" stroke-linecap="square" stroke-linejoin="bevel" transform="matrix(0.0666667,0,0,0.0666667,0,0)" font-family="微软雅黑" font-size="12" font-weight="400" font-style="normal" style="fill: rgb(19, 150, 219);">
</g>

<g fill="none" stroke="#000000" stroke-opacity="1" stroke-width="1" stroke-linecap="square" stroke-linejoin="bevel" transform="matrix(0.0666667,0,0,0.0666667,0,0)" font-family="微软雅黑" font-size="12" font-weight="400" font-style="normal" style="fill: rgb(19, 150, 219);">
</g>

<g fill="none" stroke="#000000" stroke-opacity="1" stroke-width="1" stroke-linecap="square" stroke-linejoin="bevel" transform="matrix(0.0666667,0,0,0.0666667,0,0)" font-family="微软雅黑" font-size="12" font-weight="400" font-style="normal" style="fill: rgb(19, 150, 219);">
</g>

<g fill="none" stroke="#000000" stroke-opacity="1" stroke-width="1" stroke-linecap="square" stroke-linejoin="bevel" transform="matrix(0.0666667,0,0,0.0666667,0,0)" font-family="微软雅黑" font-size="12" font-weight="400" font-style="normal" style="fill: rgb(19, 150, 219);">
</g>

<g fill="none" stroke="#000000" stroke-opacity="1" stroke-width="1" stroke-linecap="square" stroke-linejoin="bevel" transform="matrix(0.0666667,0,0,0.0666667,0.933333,0.933333)" font-family="微软雅黑" font-size="12" font-weight="400" font-style="normal" style="fill: rgb(19, 150, 219);">
</g>
</g>
</svg>