<svg width="128" height="128" viewBox="0 0 256 256" xmlns="http://www.w3.org/2000/svg" xmlns:xlink="http://www.w3.org/1999/xlink" version="1.2" baseProfile="tiny" style="font-size: 128px; color: rgb(19, 150, 219);">
<title style="fill: rgb(19, 150, 219);">Qt SVG Document</title>
<desc style="fill: rgb(19, 150, 219);">Generated with Qt</desc>
<defs style="fill: rgb(19, 150, 219);">
</defs>
<g fill="none" stroke="black" stroke-width="1" fill-rule="evenodd" stroke-linecap="square" stroke-linejoin="bevel" style="fill: rgb(19, 150, 219);">

<g fill="none" stroke="#000000" stroke-opacity="1" stroke-width="1" stroke-linecap="square" stroke-linejoin="bevel" transform="matrix(0.0666667,0,0,0.0666667,0.933333,0.933333)" font-family="微软雅黑" font-size="12" font-weight="400" font-style="normal" style="fill: rgb(19, 150, 219);">
</g>

<g fill="none" stroke="#000000" stroke-opacity="1" stroke-width="1" stroke-linecap="square" stroke-linejoin="bevel" transform="matrix(0.0666667,0,0,0.0666667,0,0)" font-family="微软雅黑" font-size="12" font-weight="400" font-style="normal" style="fill: rgb(19, 150, 219);">
</g>

<g fill="none" stroke="#000000" stroke-opacity="1" stroke-width="1" stroke-linecap="square" stroke-linejoin="bevel" transform="matrix(0.0666667,0,0,0.0666667,0,0)" font-family="微软雅黑" font-size="12" font-weight="400" font-style="normal" style="fill: rgb(19, 150, 219);">
</g>

<g fill="none" stroke="#000000" stroke-opacity="1" stroke-width="1" stroke-linecap="square" stroke-linejoin="bevel" transform="matrix(0.0666667,0,0,0.0666667,0,0)" font-family="微软雅黑" font-size="12" font-weight="400" font-style="normal" style="fill: rgb(19, 150, 219);">
</g>

<g fill="none" stroke="#000000" stroke-opacity="1" stroke-width="1" stroke-linecap="square" stroke-linejoin="bevel" transform="matrix(0.0666667,0,0,0.0666667,0,0)" font-family="微软雅黑" font-size="12" font-weight="400" font-style="normal" style="fill: rgb(19, 150, 219);">
</g>

<g fill="none" stroke="#000000" stroke-opacity="1" stroke-width="1" stroke-linecap="square" stroke-linejoin="bevel" transform="matrix(0.0666667,0,0,0.0666667,0,0)" font-family="微软雅黑" font-size="12" font-weight="400" font-style="normal" style="fill: rgb(19, 150, 219);">
</g>

<g fill="#333333" fill-opacity="1" stroke="none" transform="matrix(7.63048,0,0,7.63048,17.3216,0.305219)" font-family="Arial" font-size="16" font-weight="400" font-style="normal" style="fill: rgb(19, 150, 219);">
<path vector-effect="none" fill-rule="nonzero" d="M28,2.25 C24.2362,2.24621 20.4921,1.70749 16.88,0.65 L14.78,0 C14.5971,-0.0533333 14.4029,-0.0533333 14.22,2.22045e-16 L12.12,0.61 C8.50993,1.68156 4.76571,2.23376 1,2.25 C0.447715,2.25 6.76354e-17,2.69772 0,3.25 C0,28.43 13.6,33.25 14.18,33.45 C14.3845,33.5179 14.6055,33.5179 14.81,33.45 C15.24,33.31 25.29,29.78 28.21,12.94 C28.3039,12.3877 27.9323,11.8639 27.38,11.77 C26.8277,11.6761 26.3039,12.0477 26.21,12.6 C23.82,26.54 16.15,30.68 14.5,31.42 C12.55,30.56 2.32,25 2,4.24 C5.61735,4.14873 9.20746,3.58736 12.68,2.57 L14.5,2 L16.33,2.53 C19.7976,3.55949 23.3843,4.1343 27,4.24 C27,5.32 26.94,6.39 26.87,7.41 L14.44,19.84 L8.44,13.84 C8.05013,13.5124 7.47634,13.5301 7.1074,13.8811 C6.73846,14.2321 6.69221,14.8043 7,15.21 L13.73,22 C14.12,22.3877 14.75,22.3877 15.14,22 L28.54,8.6 C28.7087,8.43132 28.8116,8.20787 28.83,7.97 C28.94,6.47 29,4.9 29,3.29 C29.0109,3.01792 28.9104,2.75317 28.7216,2.55689 C28.5329,2.36061 28.2723,2.24978 28,2.25 " style="fill: rgb(19, 150, 219);"></path>
</g>

<g fill="none" stroke="#000000" stroke-opacity="1" stroke-width="1" stroke-linecap="square" stroke-linejoin="bevel" transform="matrix(0.0666667,0,0,0.0666667,0,0)" font-family="微软雅黑" font-size="12" font-weight="400" font-style="normal" style="fill: rgb(19, 150, 219);">
</g>

<g fill="none" stroke="#000000" stroke-opacity="1" stroke-width="1" stroke-linecap="square" stroke-linejoin="bevel" transform="matrix(0.0666667,0,0,0.0666667,0,0)" font-family="微软雅黑" font-size="12" font-weight="400" font-style="normal" style="fill: rgb(19, 150, 219);">
</g>

<g fill="none" stroke="#000000" stroke-opacity="1" stroke-width="1" stroke-linecap="square" stroke-linejoin="bevel" transform="matrix(0.0666667,0,0,0.0666667,0,0)" font-family="微软雅黑" font-size="12" font-weight="400" font-style="normal" style="fill: rgb(19, 150, 219);">
</g>

<g fill="none" stroke="#000000" stroke-opacity="1" stroke-width="1" stroke-linecap="square" stroke-linejoin="bevel" transform="matrix(0.0666667,0,0,0.0666667,0,0)" font-family="微软雅黑" font-size="12" font-weight="400" font-style="normal" style="fill: rgb(19, 150, 219);">
</g>

<g fill="none" stroke="#000000" stroke-opacity="1" stroke-width="1" stroke-linecap="square" stroke-linejoin="bevel" transform="matrix(0.0666667,0,0,0.0666667,0,0)" font-family="微软雅黑" font-size="12" font-weight="400" font-style="normal" style="fill: rgb(19, 150, 219);">
</g>

<g fill="none" stroke="#000000" stroke-opacity="1" stroke-width="1" stroke-linecap="square" stroke-linejoin="bevel" transform="matrix(0.0666667,0,0,0.0666667,0,0)" font-family="微软雅黑" font-size="12" font-weight="400" font-style="normal" style="fill: rgb(19, 150, 219);">
</g>

<g fill="none" stroke="#000000" stroke-opacity="1" stroke-width="1" stroke-linecap="square" stroke-linejoin="bevel" transform="matrix(0.0666667,0,0,0.0666667,0.933333,0.933333)" font-family="微软雅黑" font-size="12" font-weight="400" font-style="normal" style="fill: rgb(19, 150, 219);">
</g>
</g>
</svg>