<svg data-name="图层 1" xmlns:xlink="http://www.w3.org/1999/xlink" xmlns="http://www.w3.org/2000/svg" height="128" viewBox="0 0 256 256" id="图层_1" width="128" style="font-size: 128px;">
    <defs>
        <clipPath id="clip-path">
            <rect height="208" style="fill:none" y="24" width="174.91" x="40.55"></rect>
        </clipPath>
    </defs>
    <g transform="matrix(1.2307692,0,0,1.2307692,-29.538462,-29.538462)">
        <g style="clip-path:url(#clip-path)">
            <path style="fill:#bcd7ef" d="M152.57,215.52,128,232l-24.57-16.48c-36.67-24.59-60.81-64.76-62.74-108.88-.1-2.15-.14-4.3-.14-6.46V41.63l.67-.07A434.87,434.87,0,0,0,121,26.05L128,24l4.78,1.43a435.84,435.84,0,0,0,82.67,16.2v58.55c0,2.16,0,4.31-.14,6.46-1.93,44.12-26.07,84.29-62.74,108.88"></path>
            <path style="fill:#fff" d="M113.74,200.16C81.2,178.34,60.8,143.07,59.17,105.83c-.08-1.87-.13-3.76-.13-5.64V58.1a456.9,456.9,0,0,0,67.18-14.3l1.73-.51a456.53,456.53,0,0,0,69,14.82v42.08c0,1.88-.05,3.77-.13,5.65-1.63,37.23-22,72.5-54.57,94.32L128,209.73Z"></path>
            <path style="fill:#191970" d="M128,212.1l-15.36-10.3c-33.06-22.17-53.78-58-55.44-95.88-.08-1.9-.12-3.82-.12-5.73V56.37l1.7-.22a454.8,454.8,0,0,0,66.89-14.24l2.29-.67.55.16a453.69,453.69,0,0,0,68.71,14.75l1.71.23v43.81c0,1.91-.05,3.83-.13,5.73-1.66,37.86-22.38,73.7-55.44,95.88ZM61,59.82v40.37c0,1.86.05,3.71.13,5.56,1.6,36.62,21.67,71.3,53.69,92.78L128,207.36l13.16-8.83c32-21.48,52.1-56.16,53.7-92.78.09-1.85.13-3.7.13-5.56V59.82a458.76,458.76,0,0,1-67-14.47l-1.17.34A458.58,458.58,0,0,1,61,59.82"></path>
            <path style="fill:#bcd7ef" d="M143.7,140.46c1.56-1.05,4.12-.94,5.5-2.31s1.26-3.94,2.3-5.5,3.48-2.48,4.2-4.22-.35-4.1,0-6S158,118.86,158,117s-1.88-3.64-2.25-5.51.71-4.19,0-6-3.12-2.62-4.2-4.23-.93-4.12-2.3-5.49-3.94-1.27-5.5-2.31-2.48-3.48-4.23-4.2-4.09.35-5.95,0S129.9,87,128,87s-3.64,1.88-5.51,2.25-4.19-.71-6,0-2.63,3.13-4.23,4.2-4.12.93-5.5,2.31-1.26,3.94-2.3,5.49-3.48,2.49-4.2,4.23.35,4.1,0,6S98,115.05,98,117s1.88,3.64,2.25,5.52-.71,4.18,0,6,3.12,2.62,4.2,4.22.93,4.12,2.3,5.5,3.94,1.26,5.5,2.31,2.48,3.47,4.23,4.19,4.09-.35,6,0,3.62,2.26,5.52,2.26,3.64-1.89,5.51-2.26,4.19.72,6,0,2.63-3.12,4.23-4.19"></path>
            <path style="fill:#0d63ff" d="M145.27,142.81c1.71-1.15,4.53-1,6-2.54s1.4-4.33,2.54-6.05,3.83-2.73,4.62-4.65-.39-4.5,0-6.55,2.48-4,2.48-6.07-2.07-4-2.48-6.06.79-4.61,0-6.56-3.44-2.88-4.62-4.65-1-4.53-2.54-6-4.33-1.39-6-2.54-2.73-3.82-4.65-4.62-4.51.39-6.55,0S130.1,84,128,84s-4,2.08-6.07,2.48-4.6-.78-6.55,0-2.89,3.44-4.65,4.62-4.53,1-6,2.54-1.39,4.33-2.54,6-3.83,2.74-4.62,4.65.38,4.51,0,6.56S95,114.86,95,117s2.07,4,2.48,6.07-.79,4.6,0,6.55,3.44,2.89,4.62,4.65,1,4.54,2.54,6.05,4.33,1.39,6,2.54,2.73,3.82,4.65,4.61,4.51-.38,6.55,0,4,2.48,6.07,2.48,4-2.07,6.07-2.48,4.6.79,6.55,0,2.89-3.43,4.65-4.61M138,141.13c-1.51.63-3.81-1.32-5.4-1s-3,3-4.61,3-3-2.68-4.61-3-3.89,1.63-5.4,1-1.75-3.61-3.12-4.53-4.2,0-5.37-1.15-.26-4-1.15-5.37-3.91-1.62-4.53-3.11,1.32-3.82,1-5.41-3-3-3-4.61,2.67-3,3-4.61-1.64-3.89-1-5.4,3.61-1.74,4.53-3.11,0-4.2,1.15-5.38,4-.25,5.37-1.15,1.63-3.91,3.12-4.53,3.81,1.32,5.4,1,3-3,4.61-3,3,2.67,4.61,3,3.89-1.63,5.4-1,1.75,3.62,3.12,4.53,4.2,0,5.37,1.15.26,4,1.15,5.38,3.91,1.62,4.53,3.11-1.32,3.81-1,5.4,3,3,3,4.61-2.67,3-3,4.61,1.64,3.89,1,5.41-3.61,1.74-4.53,3.11,0,4.2-1.15,5.37-4,.26-5.37,1.15-1.63,3.92-3.12,4.53"></path>
            <path style="fill:#0d63ff" d="M106.85,158.3l7.65,3.08a3.07,3.07,0,0,0,3.94-1.44,3,3,0,0,0-1.58-4l-.16-.06a1.89,1.89,0,0,1-1-2.47l2.82-7-4-1.59-2.82,7a1.9,1.9,0,0,1-2.47,1h0a3.07,3.07,0,0,0-3.94,1.43,3,3,0,0,0,1.58,4"></path>
            <path style="fill:#0d63ff" d="M149.15,75.6l-7.65-3.07A3.07,3.07,0,0,0,137.56,74a3,3,0,0,0,1.58,4l.16.07a1.9,1.9,0,0,1,1.06,2.47l-2.83,7,4,1.59,2.82-7A1.9,1.9,0,0,1,146.78,81h0a3.08,3.08,0,0,0,3.94-1.44,3,3,0,0,0-1.58-4"></path>
            <path style="fill:#0d63ff" d="M169.35,138.1l3.07-7.65a3.07,3.07,0,0,0-1.43-3.94,3,3,0,0,0-4,1.58l-.07.17a1.89,1.89,0,0,1-2.46,1.05l-7-2.83-1.59,4,7,2.83a1.89,1.89,0,0,1,1.05,2.46h0a3.07,3.07,0,0,0,1.43,3.94,3,3,0,0,0,4-1.58"></path>
            <path style="fill:#0d63ff" d="M86.65,95.8l-3.07,7.66A3.06,3.06,0,0,0,85,107.39a3,3,0,0,0,4-1.57l.07-.17a1.89,1.89,0,0,1,2.46-1.05l7,2.82,1.59-4-7-2.82a1.9,1.9,0,0,1-1.05-2.47h0a3.06,3.06,0,0,0-1.43-3.93,3,3,0,0,0-4,1.57"></path>
            <path style="fill:#0d63ff" d="M142.28,161.15l7.59-3.24a3.07,3.07,0,0,0,1.77-3.8,3,3,0,0,0-3.94-1.7l-.16.07a1.9,1.9,0,0,1-2.49-1l-3-7-3.93,1.67,3,7a1.9,1.9,0,0,1-1,2.49h0a3.07,3.07,0,0,0-1.77,3.8,3,3,0,0,0,3.93,1.71"></path>
            <path style="fill:#0d63ff" d="M113.72,72.76,106.13,76a3.06,3.06,0,0,0-1.77,3.79,3,3,0,0,0,3.94,1.71l.16-.07a1.9,1.9,0,0,1,2.49,1l3,7,3.93-1.68-3-7a1.9,1.9,0,0,1,1-2.49h0a3.05,3.05,0,0,0,1.77-3.79,2.94,2.94,0,0,0-3.93-1.71"></path>
            <path style="fill:#0d63ff" d="M172.19,102.67,169,95.09a3.07,3.07,0,0,0-3.8-1.78,3,3,0,0,0-1.71,3.94l.07.16a1.89,1.89,0,0,1-1,2.49l-7,3,1.67,3.92,7-3a1.89,1.89,0,0,1,2.49,1h0a3.07,3.07,0,0,0,3.8,1.77,3,3,0,0,0,1.7-3.94"></path>
            <path style="fill:#0d63ff" d="M83.81,131.24,87,138.82a3.08,3.08,0,0,0,3.8,1.77,3,3,0,0,0,1.71-3.93l-.07-.17a1.89,1.89,0,0,1,1-2.49l7-3-1.67-3.92-7,3a1.9,1.9,0,0,1-2.49-1h0a3.07,3.07,0,0,0-3.8-1.77,3,3,0,0,0-1.7,3.94"></path>
            <path style="fill:#0d63ff" d="M128,145.21h0a2.21,2.21,0,0,1,2.21,2.21v8.81a2.21,2.21,0,0,1-4.42,0v-8.81a2.21,2.21,0,0,1,2.21-2.21"></path>
            <path style="fill:#0d63ff" d="M128,75.48h0a2.2,2.2,0,0,1,2.21,2.2v8.81a2.21,2.21,0,0,1-4.42,0V77.68a2.2,2.2,0,0,1,2.21-2.2"></path>
            <path style="fill:#0d63ff" d="M156.26,117h0a2.2,2.2,0,0,1,2.2-2.2h8.81a2.21,2.21,0,1,1,0,4.41h-8.81a2.2,2.2,0,0,1-2.2-2.21"></path>
            <path style="fill:#0d63ff" d="M86.52,117h0a2.21,2.21,0,0,1,2.21-2.2h8.81a2.21,2.21,0,0,1,0,4.41H88.73A2.21,2.21,0,0,1,86.52,117"></path>
            <path style="fill:#0d63ff" d="M148,136.93h0a2.21,2.21,0,0,1,3.12,0l6.23,6.23a2.21,2.21,0,0,1-3.12,3.12L148,140.05a2.21,2.21,0,0,1,0-3.12"></path>
            <path style="fill:#0d63ff" d="M98.67,87.62h0a2.21,2.21,0,0,1,3.12,0L108,93.85A2.21,2.21,0,1,1,104.9,97l-6.23-6.23a2.21,2.21,0,0,1,0-3.12"></path>
            <path style="fill:#0d63ff" d="M148,97h0a2.21,2.21,0,0,1,0-3.12l6.23-6.23a2.21,2.21,0,0,1,3.12,3.12L151.1,97A2.21,2.21,0,0,1,148,97"></path>
            <path style="fill:#0d63ff" d="M98.67,146.28h0a2.21,2.21,0,0,1,0-3.12l6.23-6.23a2.21,2.21,0,1,1,3.12,3.12l-6.23,6.23a2.21,2.21,0,0,1-3.12,0"></path>
            <path style="fill:#191970" d="M128,138c-2.17,0-3-2.3-3.69-4.53-.12-.35-.27-.81-.42-1.22-.36.3-.74.64-1,.89-1.73,1.53-3.53,3.13-5.38,2s-1.37-3.43-.91-5.71c.07-.37.17-.86.25-1.31-.44.07-.94.17-1.31.25-2.28.46-4.64,1-5.71-.91s.51-3.64,2-5.37c.25-.29.6-.68.89-1-.41-.16-.87-.31-1.21-.43-2.23-.74-4.54-1.52-4.54-3.69s2.31-2.94,4.54-3.69l1.21-.42c-.29-.35-.64-.74-.89-1-1.53-1.74-3.11-3.53-2-5.37s3.44-1.39,5.72-.92c.37.08.86.18,1.3.25-.07-.44-.17-.93-.25-1.3-.46-2.28-.94-4.65.92-5.72s3.63.51,5.37,2c.29.26.67.6,1,.89.15-.41.31-.86.42-1.21.75-2.23,1.52-4.53,3.69-4.53s2.95,2.3,3.69,4.54c.12.34.27.79.42,1.2.36-.29.75-.63,1-.89,1.73-1.53,3.51-3.11,5.36-2s1.38,3.44.92,5.72c-.08.37-.18.86-.25,1.3.45-.07.94-.17,1.31-.25,2.28-.45,4.64-.94,5.71.92s-.51,3.64-2,5.37c-.25.29-.6.68-.89,1,.41.16.87.31,1.21.42,2.23.75,4.54,1.52,4.54,3.69s-2.31,3-4.54,3.7c-.34.11-.8.26-1.21.42.29.35.64.74.89,1,1.53,1.73,3.11,3.52,2.05,5.37s-3.44,1.38-5.72.92c-.37-.08-.87-.18-1.31-.25.07.44.17.93.25,1.3.46,2.28.95,4.64-.92,5.71s-3.63-.51-5.37-2c-.29-.25-.67-.59-1-.89-.15.41-.3.87-.42,1.22C131,135.67,130.17,138,128,138m-3.61-10.22a2.84,2.84,0,0,1,.69.09c1.62.44,2.24,2.18,2.92,4.21.68-2,1.3-3.77,2.92-4.21s3,.71,4.59,2.11c-.42-2.07-.72-3.85.46-5s3-.87,5-.45c-1.4-1.59-2.54-3-2.11-4.6s2.17-2.23,4.21-2.92c-2-.68-3.78-1.29-4.21-2.92s.71-3,2.11-4.59c-2.07.42-3.85.72-5-.45s-.88-3-.46-5c-1.58,1.4-3,2.54-4.59,2.12s-2.24-2.18-2.92-4.22c-.68,2-1.3,3.78-2.92,4.22s-3-.72-4.59-2.12c.42,2.07.72,3.85-.45,5s-3,.88-5,.46c1.4,1.58,2.55,3,2.11,4.59s-2.18,2.24-4.21,2.92c2,.69,3.78,1.3,4.21,2.92s-.71,3-2.11,4.6c2.07-.43,3.86-.72,5,.45s.88,3,.45,5c1.36-1.19,2.58-2.2,3.91-2.2"></path>
            <rect transform="translate(-39.54 127.11) rotate(-45)" height="3.94" style="fill:#191970" y="109.31" width="154.04" x="56.65"></rect>
        </g>
    </g>
</svg>