<svg xmlns:dc="http://purl.org/dc/elements/1.1/" xmlns:cc="http://creativecommons.org/ns#" xmlns:rdf="http://www.w3.org/1999/02/22-rdf-syntax-ns#" xmlns:svg="http://www.w3.org/2000/svg" xmlns="http://www.w3.org/2000/svg" id="svg7" height="128" width="128" version="1.0" preserveAspectRatio="xMidYMid meet" viewBox="0 0 28 37" style="font-size: 128px; color: rgb(19, 150, 219);">
  <metadata id="metadata11" style="fill: rgb(19, 150, 219);">
    <rdf:rdf style="fill: rgb(19, 150, 219);">
      <cc:work rdf:about="" style="fill: rgb(19, 150, 219);">
        <dc:format style="fill: rgb(19, 150, 219);">image/svg+xml</dc:format>
        <dc:type rdf:resource="http://purl.org/dc/dcmitype/StillImage" style="fill: rgb(19, 150, 219);"></dc:type>
      </cc:work>
    </rdf:rdf>
  </metadata>
  <defs id="defs3" style="fill: rgb(19, 150, 219);">
    <pattern y="0" x="0" height="6" width="6" patternUnits="userSpaceOnUse" id="EMFhbasepattern" style="fill: rgb(19, 150, 219);"></pattern>
  </defs>
  <path id="path5" d="  M 7.8157854,0.080161902   C 22.204847,0.080161902 22.204847,0.080161902 22.204847,0.080161902   C 23.687842,0.080161902 24.409299,0.48097141 25.130756,1.2024285   C 25.892294,1.9639666 26.613751,3.0461523 26.613751,4.1684189   C 26.613751,20.842095 26.613751,20.842095 26.613751,20.842095   C 26.253023,20.481366 25.892294,19.719828 25.892294,19.359099   C 25.130756,18.597561 24.409299,17.876104 23.287033,17.515376   C 23.287033,4.1684189 23.287033,4.1684189 23.287033,4.1684189   C 23.287033,3.8076903 23.287033,3.4469618 22.926304,3.4469618   C 22.926304,3.0461523 22.565575,3.0461523 22.204847,3.0461523   C 9.2987806,3.0461523 9.2987806,3.0461523 9.2987806,3.0461523   C 9.6595092,4.1684189 9.6595092,4.1684189 9.6595092,4.1684189   C 9.6595092,5.2906855 9.6595092,5.2906855 9.6595092,5.2906855   C 9.6595092,6.0121427 9.6595092,6.3728712 9.6595092,6.7736807   C 9.6595092,7.1344093 9.2987806,7.8558664 8.5773235,8.2566759   C 8.216595,8.6174045 7.8157854,8.978133 7.0943283,8.978133   C 6.7335998,8.978133 6.3728712,8.978133 5.9720617,8.978133   C 4.5291475,8.978133 4.5291475,8.978133 4.5291475,8.978133   C 3.0461523,8.6174045 3.0461523,8.6174045 3.0461523,8.6174045   C 3.0461523,29.339256 3.0461523,29.339256 3.0461523,29.339256   C 3.0461523,29.699985 3.4068808,29.699985 3.4068808,30.100794   C 3.4068808,30.100794 3.4068808,30.100794 3.4068808,30.100794   C 3.7676094,30.100794 3.7676094,30.461523 4.1684189,30.461523   C 10.421047,30.461523 10.421047,30.461523 10.421047,30.461523   C 10.421047,30.461523 10.781776,30.822251 10.781776,31.18298   C 11.503233,31.944518 12.6255,32.665975 13.707685,33.427513   C 4.1684189,33.427513 4.1684189,33.427513 4.1684189,33.427513   C 3.0461523,33.427513 1.9238856,33.066785 1.2024285,32.305247   C 1.2024285,32.305247 1.2024285,32.305247 1.2024285,32.305247   C 1.2024285,32.305247 1.2024285,32.305247 1.2024285,32.305247   C 0.48097141,31.583789 0.080161902,30.461523 0.080161902,29.339256   C 0.080161902,7.4951378 0.080161902,7.4951378 0.080161902,7.4951378   C 0.080161902,6.7736807 0.080161902,6.7736807 0.080161902,6.7736807   C 0.48097141,6.3728712 0.48097141,6.3728712 0.48097141,6.3728712   C 6.7335998,0.48097141 6.7335998,0.48097141 6.7335998,0.48097141   C 7.0943283,0.080161902 7.0943283,0.080161902 7.0943283,0.080161902   C 7.8157854,0.080161902 7.8157854,0.080161902 7.8157854,0.080161902   z  M 6.3728712,19.359099   C 6.3728712,20.842095 6.3728712,20.842095 6.3728712,20.842095   C 10.060319,20.842095 10.060319,20.842095 10.060319,20.842095   C 10.060319,19.359099 10.060319,19.359099 10.060319,19.359099   C 6.3728712,19.359099 6.3728712,19.359099 6.3728712,19.359099   z  M 6.3728712,14.910114   C 6.3728712,16.393109 6.3728712,16.393109 6.3728712,16.393109   C 20.721852,16.393109 20.721852,16.393109 20.721852,16.393109   C 20.721852,14.910114 20.721852,14.910114 20.721852,14.910114   C 6.3728712,14.910114 6.3728712,14.910114 6.3728712,14.910114   z  M 6.3728712,10.461128   C 6.3728712,12.304852 6.3728712,12.304852 6.3728712,12.304852   C 20.721852,12.304852 20.721852,12.304852 20.721852,12.304852   C 20.721852,10.461128 20.721852,10.461128 20.721852,10.461128   C 6.3728712,10.461128 6.3728712,10.461128 6.3728712,10.461128   z  M 12.6255,6.3728712   C 12.6255,8.2566759 12.6255,8.2566759 12.6255,8.2566759   C 20.721852,8.2566759 20.721852,8.2566759 20.721852,8.2566759   C 20.721852,6.3728712 20.721852,6.3728712 20.721852,6.3728712   C 12.6255,6.3728712 12.6255,6.3728712 12.6255,6.3728712   z  M 15.19068,25.651809   C 15.952218,23.808085 17.795942,22.685818 20.361123,22.32509   C 17.795942,20.842095 14.469223,23.046547 15.19068,25.651809   z  M 14.108495,20.080556   C 12.6255,21.202823 11.904042,22.685818 11.503233,24.529542   C 11.503233,26.012537 11.904042,27.856261 12.986228,29.339256   C 14.108495,30.822251 15.952218,31.944518 17.395133,31.944518   C 18.878128,32.305247 20.361123,31.944518 21.443309,31.18298   C 21.443309,31.583789 21.443309,31.944518 21.844118,32.305247   C 24.048571,35.271237 24.048571,35.271237 24.048571,35.271237   C 24.770028,35.992694 25.531566,35.992694 26.253023,35.631965   C 26.253023,35.631965 26.253023,35.631965 26.253023,35.631965   C 26.97448,34.910508 27.335209,33.788242 26.613751,33.427513   C 24.409299,30.461523 24.409299,30.461523 24.409299,30.461523   C 24.048571,30.100794 23.687842,29.699985 23.287033,29.699985   C 24.409299,28.617799 24.770028,27.495532 25.130756,26.012537   C 25.130756,24.529542 24.770028,22.685818 23.687842,21.202823   C 22.565575,19.719828 20.721852,18.597561 19.238856,18.597561   C 17.395133,18.236833 15.551409,18.597561 14.108495,20.080556   z  M 18.878128,20.842095   C 17.795942,20.842095 16.673676,20.842095 15.551409,21.563552   C 14.469223,22.685818 14.108495,23.407275 13.707685,24.890271   C 13.707685,26.012537 14.108495,27.134804 14.829952,28.21699   C 15.551409,28.978528 16.673676,29.699985 17.795942,29.699985   C 18.878128,29.699985 20.000395,29.699985 21.08258,28.978528   C 22.204847,28.21699 22.565575,27.134804 22.565575,25.651809   C 22.926304,24.529542 22.565575,23.407275 21.844118,22.685818   C 21.08258,21.563552 20.000395,20.842095 18.878128,20.842095   z  M 7.8157854,3.4469618   C 4.1684189,7.1344093 4.1684189,7.1344093 4.1684189,7.1344093   C 4.889876,7.1344093 4.889876,7.1344093 4.889876,7.1344093   C 6.3728712,7.4951378 6.3728712,7.4951378 6.3728712,7.4951378   C 6.3728712,7.4951378 6.3728712,7.4951378 6.3728712,7.4951378   C 6.3728712,7.4951378 6.3728712,7.4951378 6.3728712,7.4951378   C 6.3728712,7.4951378 6.7335998,7.4951378 6.7335998,7.4951378   C 7.0943283,7.4951378 7.4550569,7.1344093 7.8157854,7.1344093   C 7.8157854,6.7736807 8.216595,6.3728712 8.216595,6.3728712   C 8.216595,6.0121427 8.216595,6.0121427 8.216595,5.6514141   C 8.216595,5.6514141 8.216595,5.6514141 8.216595,5.6514141   C 8.216595,5.6514141 8.216595,5.6514141 8.216595,5.6514141   C 7.8157854,4.1684189 7.8157854,4.1684189 7.8157854,4.1684189   L 7.8157854,3.4469618   z " style="fill: rgb(19, 150, 219); fill-rule: evenodd; fill-opacity: 1; stroke: none;"></path>
</svg>