<svg width="128" height="128" viewBox="0 0 256 256" xmlns="http://www.w3.org/2000/svg" xmlns:xlink="http://www.w3.org/1999/xlink" version="1.2" baseProfile="tiny" style="font-size: 128px; color: rgb(216, 31, 6);">
<title style="fill: rgb(216, 31, 6);">Qt SVG Document</title>
<desc style="fill: rgb(216, 31, 6);">Generated with Qt</desc>
<defs style="fill: rgb(216, 31, 6);">
</defs>
<g fill="none" stroke="black" stroke-width="1" fill-rule="evenodd" stroke-linecap="square" stroke-linejoin="bevel" style="fill: rgb(216, 31, 6);">

<g fill="none" stroke="#000000" stroke-opacity="1" stroke-width="1" stroke-linecap="square" stroke-linejoin="bevel" transform="matrix(0.0666667,0,0,0.0666667,0.933333,0.933333)" font-family="微软雅黑" font-size="12" font-weight="400" font-style="normal" style="fill: rgb(216, 31, 6);">
</g>

<g fill="none" stroke="#000000" stroke-opacity="1" stroke-width="1" stroke-linecap="square" stroke-linejoin="bevel" transform="matrix(0.0666667,0,0,0.0666667,0,0)" font-family="微软雅黑" font-size="12" font-weight="400" font-style="normal" style="fill: rgb(216, 31, 6);">
</g>

<g fill="none" stroke="#000000" stroke-opacity="1" stroke-width="1" stroke-linecap="square" stroke-linejoin="bevel" transform="matrix(0.0666667,0,0,0.0666667,0,0)" font-family="微软雅黑" font-size="12" font-weight="400" font-style="normal" style="fill: rgb(216, 31, 6);">
</g>

<g fill="none" stroke="#000000" stroke-opacity="1" stroke-width="1" stroke-linecap="square" stroke-linejoin="bevel" transform="matrix(0.0666667,0,0,0.0666667,0,0)" font-family="微软雅黑" font-size="12" font-weight="400" font-style="normal" style="fill: rgb(216, 31, 6);">
</g>

<g fill="none" stroke="#000000" stroke-opacity="1" stroke-width="1" stroke-linecap="square" stroke-linejoin="bevel" transform="matrix(0.0666667,0,0,0.0666667,0,0)" font-family="微软雅黑" font-size="12" font-weight="400" font-style="normal" style="fill: rgb(216, 31, 6);">
</g>

<g fill="none" stroke="#000000" stroke-opacity="1" stroke-width="1" stroke-linecap="square" stroke-linejoin="bevel" transform="matrix(0.0666667,0,0,0.0666667,0,0)" font-family="微软雅黑" font-size="12" font-weight="400" font-style="normal" style="fill: rgb(216, 31, 6);">
</g>

<g fill="#333333" fill-opacity="1" stroke="#000000" stroke-opacity="1" stroke-width="1" stroke-linecap="butt" stroke-linejoin="miter" stroke-miterlimit="4" transform="matrix(3.19141,0,0,3.19141,-0.25583,13.3712)" font-family="Arial" font-size="16" font-weight="400" font-style="normal" style="fill: rgb(216, 31, 6);">
</g>

<g fill="#333333" fill-opacity="1" stroke="none" transform="matrix(3.19141,0,0,3.19141,-0.25583,13.3712)" font-family="Arial" font-size="16" font-weight="400" font-style="normal" style="fill: rgb(216, 31, 6);">
<path vector-effect="none" fill-rule="nonzero" d="M44.6101,3.1664 C61.6445,33.1069 61.6445,33.1069 61.6445,33.1069 C79.4404,63.849 79.4404,63.849 79.4404,63.849 C81.0437,66.2538 80.2421,68.6988 77.8372,70.302 C76.9955,71.1036 75.3923,71.1036 74.5906,71.1036 C39.7603,71.1036 39.7603,71.1036 39.7603,71.1036 C5.77166,71.1036 5.77166,71.1036 5.77166,71.1036 C2.5251,71.1036 0.0801619,68.6988 0.0801619,66.2538 C0.0801619,64.6506 0.921862,63.849 0.921862,63.0473 C18.7178,33.1069 18.7178,33.1069 18.7178,33.1069 C35.7121,3.1664 35.7121,3.1664 35.7121,3.1664 C37.3554,0.761538 40.5619,-0.0801619 43.0069,1.56316 C43.8085,2.36478 43.8085,2.36478 44.6101,3.1664 M35.7121,27.4555 C35.7121,29.8603 35.7121,29.8603 35.7121,29.8603 C37.3554,50.1012 37.3554,50.1012 37.3554,50.1012 C42.2052,50.1012 42.2052,50.1012 42.2052,50.1012 C43.8085,29.8603 43.8085,29.8603 43.8085,29.8603 C43.8085,27.4555 43.8085,27.4555 43.8085,27.4555 C35.7121,27.4555 35.7121,27.4555 35.7121,27.4555 M39.7603,58.1975 C42.2052,58.1975 43.0069,57.3558 43.0069,55.7526 C43.0069,53.3077 41.4036,52.506 39.7603,52.506 C38.1571,52.506 36.5137,53.3077 36.5137,55.7526 C36.5137,57.3558 38.1571,58.1975 39.7603,58.1975 M52.7065,38.7583 C39.7603,16.1125 39.7603,16.1125 39.7603,16.1125 C27.6158,37.9567 27.6158,37.9567 27.6158,37.9567 C27.6158,38.7583 27.6158,38.7583 26.8142,38.7583 C13.868,60.6024 13.868,60.6024 13.868,60.6024 C39.7603,60.6024 39.7603,60.6024 39.7603,60.6024 C65.6927,60.6024 65.6927,60.6024 65.6927,60.6024 C52.7065,38.7583 52.7065,38.7583 52.7065,38.7583 " style="fill: rgb(216, 31, 6);"></path>
</g>

<g fill="#000000" fill-opacity="1" stroke="#000000" stroke-opacity="1" stroke-width="1" stroke-linecap="butt" stroke-linejoin="miter" stroke-miterlimit="4" transform="matrix(3.19141,0,0,3.19141,-0.25583,13.3712)" font-family="Arial" font-size="16" font-weight="400" font-style="normal" style="fill: rgb(216, 31, 6);">
</g>

<g fill="#000000" fill-opacity="1" stroke="#000000" stroke-opacity="1" stroke-width="1" stroke-linecap="butt" stroke-linejoin="miter" stroke-miterlimit="4" transform="matrix(0.99974,0,0,0.99974,0,0)" font-family="Arial" font-size="16" font-weight="400" font-style="normal" style="fill: rgb(216, 31, 6);">
</g>

<g fill="#000000" fill-opacity="1" stroke="#000000" stroke-opacity="1" stroke-width="1" stroke-linecap="butt" stroke-linejoin="miter" stroke-miterlimit="4" transform="matrix(0.0666667,0,0,0.0666667,0,0)" font-family="Arial" font-size="16" font-weight="400" font-style="normal" style="fill: rgb(216, 31, 6);">
</g>

<g fill="none" stroke="#000000" stroke-opacity="1" stroke-width="1" stroke-linecap="square" stroke-linejoin="bevel" transform="matrix(0.0666667,0,0,0.0666667,0,0)" font-family="微软雅黑" font-size="12" font-weight="400" font-style="normal" style="fill: rgb(216, 31, 6);">
</g>

<g fill="none" stroke="#000000" stroke-opacity="1" stroke-width="1" stroke-linecap="square" stroke-linejoin="bevel" transform="matrix(0.0666667,0,0,0.0666667,0,0)" font-family="微软雅黑" font-size="12" font-weight="400" font-style="normal" style="fill: rgb(216, 31, 6);">
</g>

<g fill="none" stroke="#000000" stroke-opacity="1" stroke-width="1" stroke-linecap="square" stroke-linejoin="bevel" transform="matrix(0.0666667,0,0,0.0666667,0,0)" font-family="微软雅黑" font-size="12" font-weight="400" font-style="normal" style="fill: rgb(216, 31, 6);">
</g>

<g fill="none" stroke="#000000" stroke-opacity="1" stroke-width="1" stroke-linecap="square" stroke-linejoin="bevel" transform="matrix(0.0666667,0,0,0.0666667,0,0)" font-family="微软雅黑" font-size="12" font-weight="400" font-style="normal" style="fill: rgb(216, 31, 6);">
</g>

<g fill="none" stroke="#000000" stroke-opacity="1" stroke-width="1" stroke-linecap="square" stroke-linejoin="bevel" transform="matrix(0.0666667,0,0,0.0666667,0,0)" font-family="微软雅黑" font-size="12" font-weight="400" font-style="normal" style="fill: rgb(216, 31, 6);">
</g>

<g fill="none" stroke="#000000" stroke-opacity="1" stroke-width="1" stroke-linecap="square" stroke-linejoin="bevel" transform="matrix(0.0666667,0,0,0.0666667,0,0)" font-family="微软雅黑" font-size="12" font-weight="400" font-style="normal" style="fill: rgb(216, 31, 6);">
</g>

<g fill="none" stroke="#000000" stroke-opacity="1" stroke-width="1" stroke-linecap="square" stroke-linejoin="bevel" transform="matrix(0.0666667,0,0,0.0666667,0.933333,0.933333)" font-family="微软雅黑" font-size="12" font-weight="400" font-style="normal" style="fill: rgb(216, 31, 6);">
</g>
</g>
</svg>