<svg width="128" height="128" viewBox="0 0 256 256" xmlns="http://www.w3.org/2000/svg" xmlns:xlink="http://www.w3.org/1999/xlink" version="1.2" baseProfile="tiny" style="font-size: 128px; color: rgb(112, 112, 112);">
<title style="fill: rgb(112, 112, 112);">Qt SVG Document</title>
<desc style="fill: rgb(112, 112, 112);">Generated with Qt</desc>
<defs style="fill: rgb(112, 112, 112);">
</defs>
<g fill="none" stroke="black" stroke-width="1" fill-rule="evenodd" stroke-linecap="square" stroke-linejoin="bevel" style="fill: rgb(112, 112, 112);">

<g fill="none" stroke="#000000" stroke-opacity="1" stroke-width="1" stroke-linecap="square" stroke-linejoin="bevel" transform="matrix(0.0666667,0,0,0.0666667,0.933333,0.933333)" font-family="微软雅黑" font-size="12" font-weight="400" font-style="normal" style="fill: rgb(112, 112, 112);">
</g>

<g fill="none" stroke="#000000" stroke-opacity="1" stroke-width="1" stroke-linecap="square" stroke-linejoin="bevel" transform="matrix(0.0666667,0,0,0.0666667,0,0)" font-family="微软雅黑" font-size="12" font-weight="400" font-style="normal" style="fill: rgb(112, 112, 112);">
</g>

<g fill="none" stroke="#000000" stroke-opacity="1" stroke-width="1" stroke-linecap="square" stroke-linejoin="bevel" transform="matrix(0.0666667,0,0,0.0666667,0,0)" font-family="微软雅黑" font-size="12" font-weight="400" font-style="normal" style="fill: rgb(112, 112, 112);">
</g>

<g fill="none" stroke="#000000" stroke-opacity="1" stroke-width="1" stroke-linecap="square" stroke-linejoin="bevel" transform="matrix(0.0666667,0,0,0.0666667,0,0)" font-family="微软雅黑" font-size="12" font-weight="400" font-style="normal" style="fill: rgb(112, 112, 112);">
</g>

<g fill="none" stroke="#000000" stroke-opacity="1" stroke-width="1" stroke-linecap="square" stroke-linejoin="bevel" transform="matrix(0.0666667,0,0,0.0666667,0,0)" font-family="微软雅黑" font-size="12" font-weight="400" font-style="normal" style="fill: rgb(112, 112, 112);">
</g>

<g fill="none" stroke="#000000" stroke-opacity="1" stroke-width="1" stroke-linecap="square" stroke-linejoin="bevel" transform="matrix(0.0666667,0,0,0.0666667,0,0)" font-family="微软雅黑" font-size="12" font-weight="400" font-style="normal" style="fill: rgb(112, 112, 112);">
</g>

<g fill="#333333" fill-opacity="1" stroke="none" transform="matrix(5.18296,0,0,5.18296,-0.415476,7.89405)" font-family="Arial" font-size="16" font-weight="400" font-style="normal" style="fill: rgb(112, 112, 112);">
<path vector-effect="none" fill-rule="nonzero" d="M13.1866,17.1546 L12.6255,17.4753 L11.5433,18.1968 L10.5413,18.9984 L9.53927,19.8401 L8.6174,20.6818 L7.73562,21.6437 L6.934,22.6057 L6.13239,23.6478 L5.41093,24.7299 L6.13239,25.8121 L6.97409,26.8542 L7.81579,27.8963 L8.73765,28.8583 L9.69959,29.7401 L10.7016,30.5818 L11.7838,31.3834 L14.7097,28.4575 L14.1887,27.6959 L13.7478,26.8542 L13.387,26.0125 L13.0263,25.1308 L12.7858,24.249 L12.5854,23.287 L12.5053,22.3251 L12.4652,21.3631 L12.4652,20.4814 L12.5854,19.5996 L12.7057,18.7579 L12.9461,17.9563 L13.1866,17.1546 M20.2008,15.4712 L19.5595,15.5514 L18.9583,15.6717 L18.3571,15.8721 L17.836,16.1125 L17.3551,16.4332 L16.9142,16.834 L16.5134,17.2749 L16.1927,17.7559 L15.9121,18.317 L15.7117,18.8781 L15.5915,19.4793 L15.5514,20.1206 L15.5915,20.7619 L15.7518,21.4032 L15.9522,22.0044 L16.2729,22.5656 L16.6336,23.0866 L17.0745,23.5275 L17.5555,23.9283 L18.1166,24.249 L18.6777,24.4895 L24.5696,18.6376 L24.3291,18.0364 L24.0085,17.4753 L23.6077,16.9943 L23.1668,16.5534 L22.6457,16.1927 L22.0846,15.9121 L21.4834,15.6717 L20.8421,15.5514 L20.2008,15.4712 M44.3295,0.0801619 L44.6903,0.160324 L45.0911,0.280567 L45.4518,0.521052 L45.7724,0.761538 L46.0129,1.08219 L46.2133,1.44291 L46.3737,1.80364 L46.4137,2.20445 L46.4137,2.60526 L46.3737,3.00607 L46.2133,3.3668 L46.0129,3.72753 L45.7724,4.04818 L4.04818,45.6121 L3.76761,45.8526 L3.44696,46.0129 L3.12631,46.1733 L2.76559,46.2534 L2.40486,46.2534 L2.04413,46.2534 L1.72348,46.1733 L1.36275,46.0129 L1.0421,45.8526 L0.761538,45.6121 L0.521052,45.2915 L0.320648,44.9307 L0.160324,44.57 L0.120243,44.1692 L0.120243,43.7684 L0.160324,43.3676 L0.320648,43.0069 L0.521052,42.6461 L0.761538,42.3255 L8.45708,34.67 L7.29473,33.7882 L6.21255,32.8263 L5.17044,31.8243 L4.16842,30.7421 L3.24656,29.6599 L2.36478,28.4976 L1.52308,27.255 L0.801619,26.0125 L0.0801619,24.7299 L0.8417,23.3672 L1.60324,22.0445 L2.48502,20.802 L3.40688,19.5996 L4.36882,18.4773 L5.41093,17.3551 L6.5332,16.353 L7.69554,15.351 L8.85789,14.4291 L10.1405,13.5874 L11.4231,12.8259 L12.7858,12.1044 L14.1486,11.5032 L15.5915,10.9421 L17.0344,10.4611 L18.5575,10.0603 L20.0806,9.73967 L21.6036,9.49919 L23.2069,9.37894 L24.8101,9.33886 L26.4534,9.37894 L28.0567,9.49919 L29.6198,9.73967 L31.183,10.1004 L32.7461,10.5012 L42.4858,0.761538 L42.8065,0.521052 L43.1271,0.280567 L43.5279,0.160324 L43.9287,0.0801619 L44.3295,0.0801619" style="fill: rgb(112, 112, 112);"></path>
</g>

<g fill="#333333" fill-opacity="1" stroke="none" transform="matrix(5.18296,0,0,5.18296,-0.415476,7.89405)" font-family="Arial" font-size="16" font-weight="400" font-style="normal" style="fill: rgb(112, 112, 112);">
<path vector-effect="none" fill-rule="nonzero" d="M36.5538,17.5555 L36.7943,18.4773 L36.9947,19.3992 L37.0749,20.3611 L37.115,21.3631 L37.0749,22.4053 L36.9546,23.4874 L36.7542,24.4895 L36.4336,25.4514 L36.0729,26.4133 L35.5919,27.3352 L35.1109,28.1769 L34.5097,29.0186 L33.8684,29.7801 L33.187,30.4615 L32.4255,31.1429 L31.6239,31.7441 L30.7421,32.2251 L29.8603,32.7061 L28.9384,33.0668 L27.9765,33.3874 L26.9344,33.5878 L25.8923,33.7081 L24.8502,33.7482 L23.8882,33.7482 L22.9263,33.6279 L22.0044,33.4275 L21.0826,33.187 L36.5538,17.5555" style="fill: rgb(112, 112, 112);"></path>
</g>

<g fill="#333333" fill-opacity="1" stroke="none" transform="matrix(5.18296,0,0,5.18296,-0.415476,7.89405)" font-family="Arial" font-size="16" font-weight="400" font-style="normal" style="fill: rgb(112, 112, 112);">
<path vector-effect="none" fill-rule="nonzero" d="M40.1611,14.0283 L41.2834,14.9101 L42.4056,15.7919 L43.4878,16.7138 L44.4899,17.7158 L45.4919,18.798 L46.4137,19.8802 L47.2554,21.0425 L48.0571,22.2048 L48.7785,23.4874 L49.4599,24.77 L48.7785,26.0927 L47.9769,27.4154 L47.0951,28.6579 L46.1733,29.8603 L45.2113,31.0227 L44.1692,32.1449 L43.087,33.187 L41.9247,34.149 L40.7222,35.0308 L39.4797,35.9125 L38.1571,36.6741 L36.8344,37.3955 L35.4316,37.9967 L34.0287,38.5579 L32.5858,39.0789 L31.1028,39.4397 L29.5397,39.7603 L28.0166,40.0008 L26.4133,40.121 L24.8502,40.1611 L23.247,40.121 L21.6437,40.0008 L20.1206,39.7603 L18.5976,39.4397 L17.1146,39.0789 L15.6316,38.5579 L19.3591,34.8704 L20.6818,35.151 L22.0445,35.3915 L23.4474,35.5117 L24.8502,35.5518 L26.1328,35.5117 L27.4154,35.3915 L28.698,35.2312 L29.9004,34.9907 L31.1429,34.6299 L32.3854,34.2291 L33.5878,33.7882 L34.7101,33.2672 L35.8725,32.666 L36.9947,31.9846 L38.0368,31.2631 L39.0789,30.5016 L40.081,29.6599 L41.0028,28.7781 L41.8445,27.8563 L42.6862,26.8542 L43.4478,25.8121 L44.1692,24.77 L43.4478,23.6878 L42.6862,22.6457 L41.8445,21.6437 L41.0028,20.7219 L40.081,19.8401 L39.0789,18.9984 L38.0368,18.2368 L36.9947,17.5154 L36.7943,17.3951 L40.1611,14.0283" style="fill: rgb(112, 112, 112);"></path>
</g>

<g fill="none" stroke="#000000" stroke-opacity="1" stroke-width="1" stroke-linecap="square" stroke-linejoin="bevel" transform="matrix(0.0666667,0,0,0.0666667,0,0)" font-family="微软雅黑" font-size="12" font-weight="400" font-style="normal" style="fill: rgb(112, 112, 112);">
</g>

<g fill="none" stroke="#000000" stroke-opacity="1" stroke-width="1" stroke-linecap="square" stroke-linejoin="bevel" transform="matrix(0.0666667,0,0,0.0666667,0,0)" font-family="微软雅黑" font-size="12" font-weight="400" font-style="normal" style="fill: rgb(112, 112, 112);">
</g>

<g fill="none" stroke="#000000" stroke-opacity="1" stroke-width="1" stroke-linecap="square" stroke-linejoin="bevel" transform="matrix(0.0666667,0,0,0.0666667,0,0)" font-family="微软雅黑" font-size="12" font-weight="400" font-style="normal" style="fill: rgb(112, 112, 112);">
</g>

<g fill="none" stroke="#000000" stroke-opacity="1" stroke-width="1" stroke-linecap="square" stroke-linejoin="bevel" transform="matrix(0.0666667,0,0,0.0666667,0,0)" font-family="微软雅黑" font-size="12" font-weight="400" font-style="normal" style="fill: rgb(112, 112, 112);">
</g>

<g fill="none" stroke="#000000" stroke-opacity="1" stroke-width="1" stroke-linecap="square" stroke-linejoin="bevel" transform="matrix(0.0666667,0,0,0.0666667,0,0)" font-family="微软雅黑" font-size="12" font-weight="400" font-style="normal" style="fill: rgb(112, 112, 112);">
</g>

<g fill="none" stroke="#000000" stroke-opacity="1" stroke-width="1" stroke-linecap="square" stroke-linejoin="bevel" transform="matrix(0.0666667,0,0,0.0666667,0,0)" font-family="微软雅黑" font-size="12" font-weight="400" font-style="normal" style="fill: rgb(112, 112, 112);">
</g>

<g fill="none" stroke="#000000" stroke-opacity="1" stroke-width="1" stroke-linecap="square" stroke-linejoin="bevel" transform="matrix(0.0666667,0,0,0.0666667,0.933333,0.933333)" font-family="微软雅黑" font-size="12" font-weight="400" font-style="normal" style="fill: rgb(112, 112, 112);">
</g>
</g>
</svg>